<svg width="78" height="78" fill="none" xmlns="http://www.w3.org/2000/svg"><path d="M50.426 36.715v23.004H27.574V36.715h9.14L39 39l2.285-2.285h9.14zM22.852 36.715v27.574H0V36.715h9.14L11.427 39l2.285-2.285h9.14zM78 36.715v27.574H55.148V36.715h9.141L66.574 39l2.285-2.285H78zM36.715 2.285h4.57v9.293h-4.57V2.285zM27.574 29.783a2.361 2.361 0 0 1-4.722 0V19.071l11.09-3.643 1.445 4.333-7.813 2.605v7.417zM54.996 29.86a2.285 2.285 0 1 1-4.57 0v-7.494l-7.813-2.605 1.446-4.333 10.937 3.643V29.86z" fill="#5D5D5D"/><path d="M11.426 55.148h55.148V78H11.426V55.148z" fill="#5D5D5D"/><path d="M39 55.148h27.574V78H39V55.148z" fill="#5D5D5D"/><path d="M39 55.148c-6.307 0-11.426 5.12-11.426 11.426C27.574 72.881 32.694 78 39 78c6.307 0 11.426-5.119 11.426-11.426S45.306 55.148 39 55.148z" fill="#F9BA00"/><path d="M39 59.719a6.846 6.846 0 0 0-6.855 6.855A6.846 6.846 0 0 0 39 73.43a6.846 6.846 0 0 0 6.855-6.856A6.846 6.846 0 0 0 39 59.72z" fill="#fff"/><path d="M11.426 78C5.126 78 0 72.874 0 66.574s5.126-11.426 11.426-11.426 11.426 5.127 11.426 11.426c0 6.3-5.127 11.426-11.426 11.426z" fill="#F9BA00"/><path d="M11.426 59.719a6.863 6.863 0 0 0-6.856 6.855 6.863 6.863 0 0 0 6.856 6.856 6.863 6.863 0 0 0 6.855-6.856 6.863 6.863 0 0 0-6.855-6.855z" fill="#fff"/><path d="M66.574 78c-6.3 0-11.426-5.126-11.426-11.426s5.127-11.426 11.426-11.426c6.3 0 11.426 5.127 11.426 11.426C78 72.874 72.874 78 66.574 78z" fill="#F9BA00"/><path d="M66.574 59.719a6.863 6.863 0 0 0-6.855 6.855 6.863 6.863 0 0 0 6.855 6.856 6.863 6.863 0 0 0 6.856-6.856 6.863 6.863 0 0 0-6.856-6.855z" fill="#fff"/><path d="M39 9.293a6.846 6.846 0 0 0-6.855 6.855A6.846 6.846 0 0 0 39 23.004a6.846 6.846 0 0 0 6.855-6.856A6.846 6.846 0 0 0 39 9.293z" fill="#F9BA00"/><path d="M0 0h78v4.57H0V0z" fill="#5D5D5D"/></svg>