<svg width="111" height="82" fill="none" xmlns="http://www.w3.org/2000/svg"><path d="M47.135 10.238L26 .007 4.865 10.238H2.689v5.871H49.31v-5.87h-2.176zM46.332 37.205V19.156h-6.13v18.027h-3.048V19.156h-6.13v18.049H20.248V19.156h-6.13v18.027h-3.047V19.156H4.94v18.049H2.69v5.87H49.31v-5.87h-2.979z" fill="#5D5D5D"/><path d="M52 46.122H0v5.871h52v-5.87z" fill="#F9BA00"/><g clip-path="url(#clip0)"><path d="M110.328 49.553L95.61 45.738s-.107-.025-.181-.026a1.516 1.516 0 0 0-.164.006l-2.133.291v-9.194a.895.895 0 0 0-.668-.865l-13.896-3.655a.898.898 0 0 0-.61.056l-18.445 8.705a.897.897 0 0 0-.513.811v1.589a.897.897 0 0 0 1.245.824l.13-.055.006 8.697a.898.898 0 0 0 .967.893l1.382-.112.022 9.86v3.611c0 .375.233.712.586.841L95.076 79.68s.208.083.443.044c.234-.04.378-.151.378-.151l14.72-10.295a.894.894 0 0 0 .383-.734V50.42a.895.895 0 0 0-.672-.866zM81.91 37.023c0-.092.042-.178.114-.235a.3.3 0 0 1 .254-.056l7.168 1.74a.298.298 0 0 1 .227.29v8.661c0 .15-.11.276-.257.296l-7.167.977a.297.297 0 0 1-.339-.296V37.023zM62.06 51.445c-.014.002-.027.002-.042.002a.297.297 0 0 1-.299-.298v-8.57a.3.3 0 0 1 .184-.275l14.6-6.075a.298.298 0 0 1 .413.276V49.16c0 .15-.11.276-.258.296l-14.599 1.989zm7.849 13.644a.301.301 0 0 1-.299.299.287.287 0 0 1-.074-.01L65.322 64.3a.298.298 0 0 1-.225-.289v-9.516a.3.3 0 0 1 .291-.298l4.216-.102a.299.299 0 0 1 .306.298v10.696h-.001zm8.73 2.23a.3.3 0 0 1-.373.29l-6.204-1.586a.3.3 0 0 1-.225-.29V54.33c0-.162.13-.295.291-.298l6.204-.15a.299.299 0 0 1 .306.298v13.138zm13.895 3.552a.3.3 0 0 1-.371.29l-10.027-2.563a.3.3 0 0 1-.225-.29V54.087c0-.162.13-.295.291-.298l10.027-.243a.288.288 0 0 1 .216.084c.059.057.09.133.09.214V70.87zm15.37-.579a.298.298 0 0 1-.127.245l-7.688 5.377a.302.302 0 0 1-.17.054.301.301 0 0 1-.3-.298V53.978a.298.298 0 0 1 .313-.298l7.688.354c.159.008.284.14.284.299v15.96z" fill="#5D5D5D"/><path d="M75.8 36.803c-4.073 1.743-12.277 4.917-13.984 5.575a.494.494 0 0 0-.316.465v8.086a.5.5 0 0 0 .566.495l14-1.866a.5.5 0 0 0 .434-.496V37.266a.502.502 0 0 0-.7-.463zM92 54h-9.5a.5.5 0 0 0-.5.5v13.605a.5.5 0 0 0 .384.486l9.5 2.262a.5.5 0 0 0 .616-.486V54.5a.5.5 0 0 0-.5-.5z" fill="#F9BA00"/></g><defs><clipPath id="clip0"><path fill="#fff" transform="translate(59 30)" d="M0 0h52v52H0z"/></clipPath></defs></svg>