<svg width="82" height="82" fill="none" xmlns="http://www.w3.org/2000/svg"><g clip-path="url(#clip0)"><path d="M67.443 6.04L47.03.583a2.642 2.642 0 0 0-3.236 1.869l-.68 2.547 25.517 6.824.68-2.548a2.642 2.642 0 0 0-1.868-3.233z" fill="#F9BA00"/><path d="M79.108 75.735l-22.117.011 1.723-6.428 2.554.686c1.257.386 2.838-.374 3.239-1.868a2.63 2.63 0 0 0-1.868-3.222l-2.554-.685 2.724-10.215 2.553.686c1.593.366 2.892-.57 3.24-1.868a2.657 2.657 0 0 0-1.869-3.24l-2.553-.685 2.724-10.197 2.553.686c1.587.365 2.89-.565 3.24-1.868.369-1.41-.46-2.87-1.868-3.24l-2.554-.685 2.722-10.207 2.558.684a2.642 2.642 0 0 0 1.366-5.103L34.094 8.059a2.642 2.642 0 1 0-1.366 5.103l2.555.683L32.56 24.06l-2.554-.686a2.635 2.635 0 0 0-3.24 1.869 2.63 2.63 0 0 0 1.869 3.221l2.554.686-2.724 10.214-2.554-.685c-1.409-.37-2.87.459-3.24 1.868a2.657 2.657 0 0 0 1.869 3.239l2.554.685-2.724 10.197-2.554-.685c-1.409-.37-2.87.459-3.24 1.868-.368 1.409.46 2.87 1.869 3.239l2.554.685-4.271 15.991-15.337.008a2.638 2.638 0 0 0-2.64 2.643c0 1.444 1.18 2.64 2.643 2.64l75.717-.04a2.65 2.65 0 0 0 2.64-2.642 2.638 2.638 0 0 0-2.643-2.64zm-25.47-48.78a2.665 2.665 0 0 1 3.24-1.869c1.408.387 2.254 1.83 1.868 3.24l-.668 2.553-5.107-1.371.668-2.554zM43.443 24.23c.368-1.409 1.83-2.237 3.239-1.868 1.408.37 2.237 1.83 1.868 3.24l-.686 2.535-5.107-1.353.686-2.554zm-4.096 15.305c.37-1.41 1.83-2.238 3.24-1.869a2.657 2.657 0 0 1 1.868 3.24l-.686 2.553-5.107-1.37.685-2.554zM36.264 71.53l-1.125 4.227-5.476.002 1.494-5.6a2.657 2.657 0 0 1 3.239-1.868c1.409.369 2.237 1.83 1.868 3.239zm4.095-15.322l-.685 2.554-5.108-1.371.686-2.536a2.635 2.635 0 0 1 3.239-1.868 2.63 2.63 0 0 1 1.868 3.221zm6.102 18.046l-.404 1.497-5.459.003.774-2.87c.368-1.41 1.83-2.238 3.221-1.869 1.408.387 2.254 1.83 1.868 3.239zm4.095-15.304l-.686 2.553-5.09-1.37.686-2.554c.37-1.409 1.83-2.237 3.222-1.868a2.627 2.627 0 0 1 1.868 3.239zm4.095-15.322l-.668 2.554-5.107-1.37.667-2.537a2.662 2.662 0 0 1 3.24-1.886c1.408.387 2.255 1.83 1.868 3.24z" fill="#5D5D5D"/></g><defs><clipPath id="clip0"><path fill="#fff" transform="rotate(.377 .5 151.865)" d="M0 0h81v81H0z"/></clipPath></defs></svg>