<svg width="84" height="84" fill="none" xmlns="http://www.w3.org/2000/svg"><g clip-path="url(#clip0)"><path fill="#5D5D5D" d="M0 50h50v34.286H0zM0 0h50v28.571H0z"/><path fill="#1DD9B7" d="M0 17.143h50v11.429H0zM0 4.286h50v2.857H0z"/><path fill="#5D5D5D" d="M8.571 34.286h2.857v20H8.571z"/><path fill="#5D5D5D" d="M21.429 35.715v2.857H7.143v-2.857z"/><path fill="#1DD9B7" d="M5.714 45.714h37.143V50H5.714z"/><path fill="#5D5D5D" d="M54 0h16v29H54zM54 50h16v8H54z"/><path fill="#1DD9B7" d="M54 4h16v3H54zM54 61h16v23H54z"/></g><defs><clipPath id="clip0"><path fill="#fff" d="M0 0h84v84H0z"/></clipPath></defs></svg>