<svg width="94" height="94" fill="none" xmlns="http://www.w3.org/2000/svg"><g clip-path="url(#clip0)"><path d="M17.819 7.417l2.066 4.132-2.066 4.131L3 21 .5 11.549 3 2.5s9.827 3.648 14.819 4.917zM87.802 23.944H6.198C2.789 23.944 0 26.734 0 30.142v52.31c0 3.408 2.789 6.197 6.198 6.197h81.604c3.409 0 6.198-2.789 6.198-6.198v-52.31c0-3.408-2.789-6.197-6.198-6.197z" fill="#5D5D5D"/><path d="M17.736 53.198c6.367 0 11.528-5.161 11.528-11.528 0-6.367-5.161-11.528-11.528-11.528-6.367 0-11.528 5.161-11.528 11.528 0 6.367 5.161 11.528 11.528 11.528zM47 53.198c6.367 0 11.528-5.161 11.528-11.528 0-6.367-5.161-11.528-11.528-11.528-6.367 0-11.528 5.161-11.528 11.528 0 6.367 5.161 11.528 11.528 11.528zM76.264 53.198c6.367 0 11.528-5.161 11.528-11.528 0-6.367-5.161-11.528-11.528-11.528-6.367 0-11.528 5.161-11.528 11.528 0 6.367 5.161 11.528 11.528 11.528zM17.736 82.451c6.367 0 11.528-5.16 11.528-11.528 0-6.366-5.161-11.528-11.528-11.528-6.367 0-11.528 5.162-11.528 11.528 0 6.367 5.161 11.528 11.528 11.528zM47 82.451c6.367 0 11.528-5.16 11.528-11.528 0-6.366-5.161-11.528-11.528-11.528-6.367 0-11.528 5.162-11.528 11.528 0 6.367 5.161 11.528 11.528 11.528z" fill="#fff"/><path d="M76.264 82.451c6.367 0 11.528-5.16 11.528-11.528 0-6.366-5.161-11.528-11.528-11.528-6.367 0-11.528 5.162-11.528 11.528 0 6.367 5.161 11.528 11.528 11.528z" fill="#1DD9B7"/><path d="M89.868 7.417A4.13 4.13 0 0 1 94 11.549a4.13 4.13 0 0 1-4.132 4.131H36.412V7.417h53.456z" fill="#5D5D5D"/><path d="M36.412 7.417l2.066 4.132-2.066 4.131H17.82V7.417h18.593z" fill="#1DD9B7"/></g><defs><clipPath id="clip0"><path fill="#fff" d="M0 0h94v94H0z"/></clipPath></defs></svg>