<svg width="60" height="60" fill="none" xmlns="http://www.w3.org/2000/svg"><path d="M45.615 39.691c-1.96-1.935-4.407-1.935-6.355 0a370.748 370.748 0 0 0-4.432 4.445c-.4.412-.737.5-1.224.224-.961-.524-1.985-.948-2.909-1.523-4.307-2.709-7.916-6.193-11.112-10.113-1.585-1.948-2.996-4.033-3.983-6.38-.2-.474-.162-.787.225-1.174 1.486-1.435 2.934-2.909 4.395-4.382 2.035-2.048 2.035-4.445-.013-6.505-1.16-1.173-2.322-2.322-3.483-3.496-1.199-1.198-2.385-2.41-3.596-3.596-1.96-1.91-4.407-1.91-6.355.013-1.498 1.473-2.934 2.984-4.457 4.432C.905 12.972.193 14.608.043 16.518c-.237 3.109.525 6.043 1.599 8.902 2.197 5.918 5.543 11.175 9.6 15.994 5.482 6.517 12.024 11.674 19.678 15.395 3.446 1.672 7.017 2.959 10.9 3.17 2.672.15 4.994-.524 6.854-2.609 1.274-1.423 2.71-2.721 4.058-4.082 1.998-2.023 2.01-4.47.025-6.468a1927.795 1927.795 0 0 0-7.142-7.129z" fill="#5D5D5D"/><path d="M42.671 27.475c.4 1.227 1.59 2.09 2.862 1.872 1.273-.217 2.141-1.431 1.782-2.671a20.634 20.634 0 0 0-5.233-8.834c-2.65-2.65-5.88-4.492-9.443-5.404-1.251-.32-2.439.585-2.618 1.864-.18 1.28.72 2.445 1.96 2.807a15.874 15.874 0 0 1 6.805 4.041 15.871 15.871 0 0 1 3.885 6.325zm7.764-17.761C45.67 4.95 39.776 1.759 33.26.4c-1.264-.264-2.448.636-2.627 1.915-.18 1.28.716 2.453 1.977 2.731 5.506 1.214 10.49 3.949 14.53 7.976 3.803 3.803 6.464 8.481 7.769 13.636.316 1.25 1.513 2.107 2.784 1.89 1.273-.217 2.136-1.429 1.831-2.684-1.484-6.11-4.599-11.65-9.088-16.15z" fill="#1DD9B7"/></svg>