<svg width="70" height="70" fill="none" xmlns="http://www.w3.org/2000/svg"><g clip-path="url(#clip0)"><path d="M2.23 13.086L12.61 2.813a3.184 3.184 0 0 1 4.47 0l6.014 5.955 4.95 4.9L59.85 45.15l9.074 23.683-9.872-3.706L45 59.85 13.194 28.364l-4.95-4.9-6.015-5.955a3.105 3.105 0 0 1 0-4.423z" fill="#E7ECED"/><path d="M45.557 60.06c1.86-2.552 4.313-4.366 6.838-6.283 1.52-1.152 3.37-2.413 4.47-4.008.815-1.185 1.207-2.383 2.234-3.447.298-.309.617-.519.942-.671l-.192-.501-31.806-31.485-14.85 14.7L45 59.85l.557.21z" fill="#fff"/><path d="M8.244 23.465l14.85-14.7-6.016-5.954a3.183 3.183 0 0 0-4.47 0L2.229 13.085a3.107 3.107 0 0 0 0 4.426l6.016 5.954z" fill="#F9BA00"/><path d="M61.688 65.756c.032-.047.061-.096.098-.14.085-.106.183-.2.284-.295.023-.02.042-.043.066-.062a2.625 2.625 0 0 1 .407-.286 2.58 2.58 0 0 1 .476-.217 2.766 2.766 0 0 1 1.53-.724c.192-.931.75-1.774 1.708-2.155l-6.304-16.455-14.68 14.53 16.222 6.092c.056-.102.126-.194.193-.288z" fill="#fff"/><path d="M65.748 60.544l3.175 8.29-8.373-3.145 5.198-5.145z" fill="#F9BA00"/><path d="M13.194 28.365l14.85-14.7-4.95-4.9-14.85 14.7 4.95 4.9zm-.061 32.139a3.5 3.5 0 1 1-7 0 3.5 3.5 0 0 1 7 0z" fill="#fff"/><path d="M13.194 29.072a1.16 1.16 0 0 1-.825-.342l-4.95-4.95a1.166 1.166 0 0 1 0-1.65L22.27 7.282a1.164 1.164 0 0 1 1.65 0l4.948 4.95a1.166 1.166 0 0 1 0 1.65L14.019 28.73c-.22.22-.516.342-.825.342zm-3.3-6.116l3.299 3.301 13.199-13.2-3.3-3.3-13.199 13.2z" fill="#5D5D5D"/><path d="M8.244 24.123c-.299 0-.597-.114-.825-.341l-6.015-6.015a4.302 4.302 0 0 1-1.267-3.06c0-1.156.45-2.242 1.266-3.06l10.38-10.38a4.333 4.333 0 0 1 6.12 0l6.015 6.014a1.166 1.166 0 0 1 0 1.65l-14.85 14.85a1.163 1.163 0 0 1-.824.343zm6.6-21.789c-.511 0-1.021.195-1.41.584l-10.38 10.38a1.977 1.977 0 0 0-.584 1.409c0 .534.208 1.034.585 1.41l5.189 5.189 13.2-13.199-5.19-5.19a1.99 1.99 0 0 0-1.41-.583zm35.105 53.595c-.299 0-.598-.115-.825-.342l-7.425-7.425a1.166 1.166 0 1 1 1.65-1.65l7.424 7.425a1.166 1.166 0 0 1-.824 1.992zm18.974 14.025c-.139 0-.278-.025-.413-.076L60.137 66.7a1.168 1.168 0 0 1-.41-1.916l5.197-5.197a1.167 1.167 0 0 1 1.916.41l3.175 8.373a1.17 1.17 0 0 1-1.092 1.583zm-6.272-4.795l4.262 1.617-1.617-4.261-2.645 2.644z" fill="#5D5D5D"/><path d="M68.923 69.954c-.139 0-.278-.025-.413-.076l-23.65-8.97a1.168 1.168 0 0 1-.41-1.916l14.68-14.68a1.168 1.168 0 0 1 1.915.411l8.97 23.65a1.17 1.17 0 0 1-.266 1.239 1.173 1.173 0 0 1-.826.342zm-21.548-10.59l19.538 7.413-7.411-19.538-12.127 12.126zM10.013 70a9.78 9.78 0 0 1-6.98-2.897 9.795 9.795 0 0 1-2.89-7.326 9.794 9.794 0 0 1 3.38-7.116l37.66-32.36c1.388-1.201 2.053-3.067 1.775-4.987-.525-3.645.435-6.72 2.855-9.139l4.124-4.125A6.956 6.956 0 0 1 54.887 0c1.87 0 3.628.728 4.95 2.05a1.166 1.166 0 0 1 0 1.65l-7.426 7.424 6.6 6.6 7.425-7.425a1.166 1.166 0 0 1 1.65 0 7.01 7.01 0 0 1 0 9.9l-4.126 4.125c-2.42 2.42-5.495 3.379-9.138 2.855-1.92-.276-3.785.388-4.989 1.778L17.482 66.609A9.798 9.798 0 0 1 10.013 70z" fill="#5D5D5D"/><path d="M22.866 38.745c-.3 0-.599-.114-.825-.342L12.37 28.73a1.166 1.166 0 0 1 0-1.65l14.85-14.848c.437-.438 1.212-.438 1.65 0l10.794 10.794a1.165 1.165 0 0 1-.064 1.711L23.626 38.463a1.16 1.16 0 0 1-.76.282zm-8.022-10.84l8.082 8.083 14.197-12.201-9.08-9.081-13.2 13.2zm54.079 42.048c-.139 0-.278-.024-.413-.075l-23.923-9.075a1.153 1.153 0 0 1-.41-.266L31.733 48.096a1.167 1.167 0 0 1-.061-1.586l13.726-15.973a1.17 1.17 0 0 1 .84-.406c.33-.018.64.113.87.341l13.565 13.564c.117.117.208.256.266.411l9.074 23.924a1.17 1.17 0 0 1-1.09 1.582zM45.647 58.71l21.266 8.066-8.066-21.266L46.35 33.013l-12.2 14.199L45.647 58.71z" fill="#5D5D5D"/></g><defs><clipPath id="clip0"><path fill="#fff" d="M0 0h70v70H0z"/></clipPath></defs></svg>
