<svg width="60" height="60" fill="none" xmlns="http://www.w3.org/2000/svg"><path d="M0 24.375c0 3.49 2.395 6.398 5.625 7.236V56.25h-3.75a1.876 1.876 0 0 0 0 3.75h56.25c1.04 0 1.875-.839 1.875-1.875a1.872 1.872 0 0 0-1.875-1.875h-3.75V31.611c3.23-.838 5.625-3.746 5.625-7.236V22.5H0v1.875zm37.5 7.5c4.145 0 7.5-3.358 7.5-7.5 0 3.49 2.395 6.398 5.625 7.236V56.25H22.5V31.875c4.145 0 7.5-3.358 7.5-7.5 0 4.142 3.362 7.5 7.5 7.5zm-16.875-.264V56.25H9.375V31.611c3.23-.838 5.625-3.746 5.625-7.236 0 3.49 2.395 6.398 5.625 7.236zM52.5 5.625h-45l-7.5 15h60l-7.5-15zM15.842 9.793l-3.75 7.5a.946.946 0 0 1-.842.52.934.934 0 0 1-.835-1.355l3.75-7.5a.943.943 0 0 1 1.256-.422.94.94 0 0 1 .421 1.257zm7.5 0l-3.75 7.5a.946.946 0 0 1-.842.52.934.934 0 0 1-.835-1.355l3.75-7.5a.944.944 0 0 1 1.256-.422.94.94 0 0 1 .421 1.257zm7.596 7.082a.937.937 0 1 1-1.875 0v-7.5a.937.937 0 1 1 1.875 0v7.5zm10.766.82a.932.932 0 0 1-1.274-.37l-4.102-7.5a.935.935 0 0 1 .374-1.27.937.937 0 0 1 1.274.37l4.102 7.5a.941.941 0 0 1-.374 1.27zm7.463.019a.876.876 0 0 1-.417.099.927.927 0 0 1-.835-.52l-3.75-7.5a.934.934 0 0 1 .418-1.257.943.943 0 0 1 1.26.421l3.75 7.5a.937.937 0 0 1-.426 1.257zm-33.23 27.572v-4.322c-.549-.33-.937-.9-.937-1.589 0-1.036.842-1.875 1.875-1.875 1.04 0 1.875.839 1.875 1.875 0 .689-.384 1.26-.938 1.59v4.32c.553.33.938.902.938 1.59a1.876 1.876 0 0 1-3.75 0c0-.688.388-1.26.938-1.59zM7.5 1.875C7.5.839 8.342 0 9.375 0h41.25c1.04 0 1.875.839 1.875 1.875a1.872 1.872 0 0 1-1.875 1.875H9.375A1.876 1.876 0 0 1 7.5 1.875zm25.364 40.038l-1.326-1.326 5.303-5.303 1.326 1.326-5.303 5.303zm0 5.303l-1.326-1.326 10.606-10.606 1.325 1.326-10.605 10.605zm9.28-6.629l1.325 1.326-5.303 5.303-1.325-1.326 5.303-5.303z" fill="#5D5D5D"/><path d="M15.938 45.286v-4.322c-.55-.329-.938-.9-.938-1.589 0-1.036.842-1.875 1.875-1.875 1.04 0 1.875.839 1.875 1.875 0 .689-.384 1.26-.938 1.59v4.32c.553.33.938.902.938 1.59a1.876 1.876 0 0 1-3.75 0c0-.688.388-1.26.938-1.59zm16.926-3.373l-1.326-1.326 5.303-5.303 1.326 1.326-5.303 5.303zm0 5.303l-1.326-1.326 10.606-10.606 1.325 1.326-10.605 10.606zm9.28-6.629l1.325 1.326-5.303 5.303-1.325-1.326 5.303-5.303z" fill="#1DD9B7"/></svg>