<svg width="70" height="70" fill="none" xmlns="http://www.w3.org/2000/svg"><path d="M16.333 46.084c-3.86 0-7 3.139-7 7 0 3.86 3.14 7 7 7s7-3.14 7-7c0-3.861-3.14-7-7-7zm0 11.666a4.671 4.671 0 0 1-4.666-4.666 4.671 4.671 0 0 1 4.666-4.667A4.671 4.671 0 0 1 21 53.083a4.671 4.671 0 0 1-4.667 4.667zM56 46.084c-3.86 0-7 3.139-7 7 0 3.86 3.14 7 7 7s7-3.14 7-7c0-3.861-3.14-7-7-7zm0 11.666a4.671 4.671 0 0 1-4.667-4.666A4.671 4.671 0 0 1 56 48.416a4.671 4.671 0 0 1 4.667 4.666A4.671 4.671 0 0 1 56 57.75z" fill="#5D5D5D"/><path d="M59.315 23.285l10.5 16.334c.12.188.185.408.185.631v12.833c0 .646-.522 1.167-1.167 1.167H45.5a1.166 1.166 0 0 1-1.167-1.167V23.917c0-.644.522-1.167 1.167-1.167h12.833c.397 0 .767.202.982.535z" fill="#5D5D5D"/><path d="M51.333 37.917V29.75h9.334v-2.333h-10.5c-.645 0-1.167.522-1.167 1.166v10.5c0 .646.522 1.167 1.167 1.167h17.5v-2.333H51.333z" fill="#fff"/><path d="M45.5 14.584H1.167C.523 14.584 0 15.106 0 15.75v37.334c0 .645.523 1.166 1.167 1.166H10.5v-2.333H2.333v-35h42v35H22.167v2.333H45.5c.645 0 1.167-.521 1.167-1.166V15.75c0-.644-.522-1.166-1.167-1.166z" fill="#5D5D5D"/><path d="M8.167 47.25h-7v2.333h7V47.25zm36.166 0H24.5v2.333h19.833V47.25z" fill="#5D5D5D"/><path d="M68.833 47.25h-4.666v2.333h4.666V47.25z" fill="#fff"/><path d="M45.5 19.25H4.667v2.333H45.5V19.25z" fill="#1DD9B7"/><path d="M17.5 51.917h-2.333v2.333H17.5v-2.333z" fill="#5D5D5D"/><path d="M57.167 51.917h-2.334v2.333h2.334v-2.333z" fill="#fff"/><path d="M21 9.917H4.667v2.333H21V9.917zm-18.667 0H0v2.333h2.333V9.917z" fill="#1DD9B7"/></svg>