<svg width="30" height="30" fill="none" xmlns="http://www.w3.org/2000/svg"><path d="M20.625 0H9.375A9.376 9.376 0 0 0 0 9.375v11.25A9.376 9.376 0 0 0 9.375 30h11.25A9.376 9.376 0 0 0 30 20.625V9.375A9.376 9.376 0 0 0 20.625 0zm6.563 20.625a6.57 6.57 0 0 1-6.563 6.563H9.375a6.57 6.57 0 0 1-6.563-6.563V9.375a6.57 6.57 0 0 1 6.563-6.563h11.25a6.57 6.57 0 0 1 6.563 6.563v11.25z" fill="#fff"/><path d="M15 7.5a7.5 7.5 0 1 0 0 15 7.5 7.5 0 0 0 0-15zm0 12.188A4.694 4.694 0 0 1 10.312 15 4.693 4.693 0 0 1 15 10.312 4.693 4.693 0 0 1 19.688 15 4.694 4.694 0 0 1 15 19.688zm8.063-11.751a1 1 0 1 0 0-2 1 1 0 0 0 0 2z" fill="#fff"/></svg>