<svg width="40" height="40" fill="none" xmlns="http://www.w3.org/2000/svg"><g clip-path="url(#clip0)"><path d="M39.788 29.2a2.744 2.744 0 0 0-.136-.26c-.694-1.25-2.02-2.785-3.977-4.604l-.042-.041-.02-.02-.021-.022h-.021c-.889-.847-1.451-1.416-1.687-1.708-.431-.555-.528-1.118-.292-1.687.166-.43.791-1.34 1.874-2.728.57-.736 1.02-1.326 1.354-1.77 2.402-3.194 3.443-5.234 3.124-6.123l-.124-.208c-.084-.125-.299-.24-.645-.344-.348-.104-.792-.12-1.334-.051l-5.998.041c-.097-.034-.235-.031-.416.01l-.271.063-.104.052-.083.063a.927.927 0 0 0-.23.218 1.43 1.43 0 0 0-.207.365 34.013 34.013 0 0 1-2.229 4.686 44.385 44.385 0 0 1-1.416 2.239c-.43.631-.792 1.097-1.083 1.395a7.563 7.563 0 0 1-.792.718c-.236.181-.416.257-.54.23a15.118 15.118 0 0 1-.355-.084 1.385 1.385 0 0 1-.469-.51 2.287 2.287 0 0 1-.24-.813 8.964 8.964 0 0 1-.072-.843c-.007-.236-.004-.57.01-1 .015-.43.021-.722.021-.874 0-.528.01-1.1.031-1.719.021-.617.038-1.107.052-1.468.015-.36.021-.743.021-1.145 0-.403-.024-.719-.073-.948a3.237 3.237 0 0 0-.218-.666 1.122 1.122 0 0 0-.427-.5 2.407 2.407 0 0 0-.698-.282c-.735-.166-1.672-.256-2.811-.27-2.583-.028-4.242.139-4.978.5-.291.152-.555.36-.791.624-.25.306-.285.473-.104.5.833.125 1.422.424 1.77.896l.125.25c.097.18.194.5.291.958.098.458.16.965.188 1.52.07 1.013.07 1.881 0 2.603-.07.722-.135 1.284-.198 1.687s-.156.729-.281.979a4.11 4.11 0 0 1-.25.458.357.357 0 0 1-.104.104 1.56 1.56 0 0 1-.563.104c-.194 0-.43-.097-.708-.291a4.997 4.997 0 0 1-.864-.802c-.298-.34-.635-.816-1.01-1.427A24.886 24.886 0 0 1 10.6 15.09l-.334-.604a52.072 52.072 0 0 1-.853-1.697 32.737 32.737 0 0 1-.958-2.156 1.372 1.372 0 0 0-.5-.666l-.104-.063a1.425 1.425 0 0 0-.333-.177 2.21 2.21 0 0 0-.48-.135l-5.706.041c-.583 0-.979.132-1.187.396l-.083.125c-.042.07-.063.18-.063.333 0 .153.042.34.125.563a68.737 68.737 0 0 0 2.718 5.665c.979 1.818 1.83 3.283 2.55 4.394A51.885 51.885 0 0 0 7.6 24.253c.75.986 1.247 1.618 1.49 1.896.243.278.434.486.572.624l.521.5c.333.333.823.733 1.468 1.198.646.465 1.361.923 2.145 1.375.785.45 1.698.818 2.74 1.103a9.461 9.461 0 0 0 3.04.344h2.395c.486-.042.854-.195 1.104-.458l.083-.105a1.38 1.38 0 0 0 .156-.385c.048-.173.073-.364.073-.572a6.868 6.868 0 0 1 .135-1.614c.104-.479.222-.84.354-1.083.132-.243.282-.448.448-.614.166-.167.285-.268.354-.302.07-.035.125-.059.167-.073.333-.111.725-.004 1.177.323.45.326.874.729 1.27 1.208.396.48.871 1.017 1.427 1.614.555.597 1.04 1.04 1.457 1.333l.417.25c.278.166.639.32 1.083.458.444.139.832.173 1.166.104l5.331-.083c.528 0 .938-.087 1.23-.26.29-.174.464-.365.52-.573a1.6 1.6 0 0 0 .01-.709 2.653 2.653 0 0 0-.146-.552z" fill="#fff"/></g><defs><clipPath id="clip0"><path fill="#fff" d="M0 0h40v40H0z"/></clipPath></defs></svg>