<svg width="59" height="59" fill="none" xmlns="http://www.w3.org/2000/svg"><g clip-path="url(#clip0)"><path d="M29.5 18.258c-6.2 0-11.242 5.042-11.242 11.24 0 6.2 5.043 11.242 11.242 11.242 6.198 0 11.24-5.042 11.24-11.241S35.699 18.258 29.5 18.258zm6.674 9.124l-8.054 8.053a1.726 1.726 0 0 1-2.448 0l-3.077-3.077a1.73 1.73 0 1 1 2.447-2.448l1.854 1.853 6.83-6.829a1.73 1.73 0 1 1 2.448 2.448z" fill="#1DD9B7"/><path d="M54.562 16.008l-.002-.045a61.497 61.497 0 0 1-.053-1.834c-.048-3.253-2.634-5.944-5.888-6.126-6.783-.378-12.03-2.59-16.514-6.96l-.039-.037a3.776 3.776 0 0 0-5.131 0l-.039.036c-4.483 4.37-9.731 6.583-16.514 6.962-3.254.181-5.84 2.872-5.888 6.126-.01.662-.028 1.262-.053 1.832l-.003.107c-.132 6.917-.296 15.526 2.584 23.34 1.584 4.297 3.982 8.032 7.128 11.103 3.583 3.496 8.276 6.272 13.949 8.25A4.315 4.315 0 0 0 29.5 59a4.238 4.238 0 0 0 1.404-.239c5.666-1.981 10.354-4.759 13.934-8.255 3.145-3.071 5.543-6.807 7.128-11.105 2.89-7.837 2.727-16.462 2.596-23.393zM29.5 44.205c-8.108 0-14.704-6.596-14.704-14.704S21.392 14.798 29.5 14.798c8.107 0 14.703 6.595 14.703 14.703S37.607 44.205 29.5 44.205z" fill="#5D5D5D"/></g><defs><clipPath id="clip0"><path fill="#fff" transform="matrix(1 0 0 -1 0 59)" d="M0 0h59v59H0z"/></clipPath></defs></svg>