<svg width="329" height="221" fill="none" xmlns="http://www.w3.org/2000/svg"><path d="M227.166 154.029l23.883-28.001h-16.471l-15.647-6.176 8.235 34.177z" fill="#A19B9B"/><path d="M219.655 113.35l19.431-97.198c1.783-8.92 10.46-14.706 19.38-12.923 8.92 1.783 14.706 10.46 12.923 19.38l-19.431 97.198c-1.083 5.416-6.351 8.929-11.766 7.846l-12.692-2.537c-5.415-1.083-8.928-6.351-7.845-11.766z" fill="#A19B9B"/><path d="M237.049 19.378c2.882 4.736 16.883 13.177 34.589 7.104m-36.236 1.131c3.02 4.653 17.687 12.944 36.236 6.979m-53.531 83.177c3.02 4.652 17.687 12.943 36.236 6.978m-31.834 16.081s7.951 5.765 15.363 3.706" stroke="#fff" stroke-width="4" stroke-linecap="round" stroke-linejoin="round"/><path d="M171 170h131.75c13.393 0 24.25 10.857 24.25 24.25v0c0 13.393-10.857 24.25-24.25 24.25H97" stroke="#A19B9B" stroke-width="4" stroke-linecap="round" stroke-linejoin="round"/><path d="M30.766 46.95l-2.29 5.343m4.58-1.526l-2.29 5.342m4.58-3.053l-2.29 6.106m4.198-3.052l-2.671 6.868m4.579-4.198l-3.816 8.778m5.724-4.961l-4.961 11.067m6.869-7.633l-5.343 12.212m11.831 23.279l-8.778 18.318m3.817-49.992l-6.106 12.975m7.632-8.778l-6.106 14.12m8.015-9.159l-7.252 16.028m8.014-9.922l-8.395 18.318m9.54-11.83l-9.922 21.752" stroke="#A19B9B" stroke-linecap="round" stroke-linejoin="round"/><path d="M20.081 140.065c8.396-2.289 19.081-10.685 19.081-10.685m-1.145.763s-4.96 10.304-13.356 11.449m14.119-12.975s-1.526 10.685-6.487 14.883m6.106-12.212s2.29 6.869 0 10.686m106.09-10.304c8.396-2.29 19.081-10.686 19.081-10.686m-1.144.764s-4.962 10.303-13.357 11.448m14.12-12.975s-1.527 10.686-6.488 14.883m6.106-12.211s2.29 6.869 0 10.685m17.934-108.93c-8.42 2.197-19.197 10.474-19.197 10.474m1.153-.751s5.074-10.248 13.482-11.3M161.917 35.89s1.644-10.668 6.651-14.811m-6.24 12.143s-2.214-6.894.117-10.684M1.038 26.174c8.42 2.197 19.198 10.474 19.198 10.474m-1.154-.75S14.008 25.649 5.6 24.597m14.263 12.819s-1.645-10.668-6.652-14.811m6.241 12.144s2.213-6.894-.118-10.685" stroke="#A19B9B" stroke-width="2" stroke-linecap="round" stroke-linejoin="round"/><path d="M39.277 88.874c-2.258-18.3-7.701-38.31-18.779-51.954 3.69.674 7.886 1.506 12.473 2.415 15.14 3 34.535 6.844 54.023 8.662 14.416 1.345 29.072 1.612 42.402-.37 12.335-1.833 23.659-5.61 32.603-12.357 4.129 10.155 8.747 27.177 10.169 43.717.769 8.95.592 17.648-1.045 24.986-1.576 7.063-4.454 12.656-8.925 16.117-16.339-.946-43.761-2.044-69.158-.865-12.883.599-25.31 1.786-35.532 3.897-5.11 1.056-9.719 2.353-13.578 3.947-1.65.681-3.188 1.427-4.58 2.246.554-3.366.954-7.566 1.145-12.293.326-8.082.046-17.906-1.218-28.148z" stroke="#A19B9B" stroke-width="4"/><path d="M81.904 98.85c11.703 5.47 39.383 11.755 56.48-6.869" stroke="#A19B9B" stroke-width="2" stroke-linecap="round"/><path d="M98.298 70.51c.352 1.4.254 2.301-.03 2.916-.281.61-.82 1.103-1.696 1.53-.887.434-2.028.757-3.39 1.074-.5.116-1.04.233-1.6.355a88.86 88.86 0 0 0-2.826.645c-.963.242-1.91.514-2.786.766-.518.149-1.012.29-1.468.415-1.28.347-2.332.574-3.21.59-.852.014-1.456-.171-1.927-.575-.494-.422-.975-1.196-1.334-2.624-1.406-5.597 1.991-11.274 7.588-12.68 5.596-1.406 11.273 1.99 12.68 7.588zm40.743 2.577c-.271 1.38-.774 2.058-1.318 2.412-.573.373-1.382.517-2.513.427-1.128-.088-2.432-.395-3.899-.776-.271-.07-.547-.144-.828-.218-1.209-.32-2.5-.66-3.79-.913-1.387-.272-2.667-.423-3.771-.553l-.489-.058c-1.246-.15-2.163-.286-2.838-.54-.623-.233-.931-.523-1.096-.953-.195-.506-.256-1.362.036-2.852 1.112-5.663 6.603-9.352 12.265-8.241 5.663 1.111 9.353 6.603 8.241 12.265z" stroke="#A19B9B" stroke-width="2"/><circle cx="88.908" cy="69.908" r="1.908" fill="#A19B9B"/><circle cx="130.908" cy="68.908" r="1.908" fill="#A19B9B"/><path d="M20.845 37.41c17.427 14.374 45.26 53.045 17.173 92.733" stroke="#A19B9B" stroke-width="2"/></svg>