<svg width="238" height="360" fill="none" xmlns="http://www.w3.org/2000/svg"><path d="M35 180.5S72.537 200 125 200s96-19.5 96-19.5" stroke="#A19B9B" stroke-width="5" stroke-linecap="round" stroke-linejoin="round"/><path d="M48.5 208s31.245 16 76.5 16c45.255 0 78.5-16 78.5-16" stroke="#A19B9B" stroke-width="4" stroke-linecap="round" stroke-linejoin="round"/><path d="M82.5 233s9.26 10 42.5 10 41.5-6.5 41.5-6.5" stroke="#A19B9B" stroke-width="3" stroke-linecap="round" stroke-linejoin="round"/><path d="M98.42 342.653l8.293-16.389c1.655-3.254 5.747-4.508 9.121-2.79l8.246 4.196c.322-.345.654-.704 1.003-1.084 3.212-3.46 7.606-8.2 11.405-15.713 3.812-7.53 5.033-13.894 5.929-18.541.094-.492.183-.966.276-1.419l-5.533-2.81-2.722-1.388c-3.379-1.72-4.78-5.773-3.133-9.032l8.293-16.39c1.649-3.256 5.742-4.511 9.122-2.79l4.619 2.368-.064.125a21.214 21.214 0 0 1 4.518 4.128c1.244 1.546 2.21 3.094 2.951 4.719 6.048 12.997 3.918 27.377-7.342 49.624-15.565 30.75-34.786 35.089-35.618 35.266a21.893 21.893 0 0 1-5.561.385 21.064 21.064 0 0 1-5.967-1.214l-.053.092-4.65-2.305c-3.374-1.722-4.778-5.775-3.134-9.038z" fill="#A19B9B"/><path d="M40 36l-3 7m6-2l-3 7m6-4l-3 8m5.5-4L45 57m6-5.5L46 63m7.5-6.5L47 71m9-10l-7 16m15.5 30.5l-11.5 24M58 66l-8 17m10-11.5L52 90m10.5-12L53 99m10.5-13l-11 24M65 94.5L52 123" stroke="#A19B9B" stroke-linecap="round" stroke-linejoin="round"/><path d="M26 158c11-3 25-14 25-14m-1.5 1S43 158.5 32 160m18.5-17s-2 14-8.5 19.5m8-16s3 9 0 14M189 147c11-3 25-14 25-14m-1.5 1s-6.5 13.5-17.5 15m18.5-17s-2 14-8.5 19.5m8-16s3 9 0 14M236.497 6.779c-11.032 2.878-25.153 13.723-25.153 13.723m1.511-.982s6.649-13.428 17.665-14.807m-18.687 16.795s2.154-13.977 8.715-19.405m-8.176 15.911s-2.901-9.033.154-14M1.05 8.779c11.032 2.878 25.152 13.723 25.152 13.723m-1.511-.982S18.043 8.091 7.027 6.712m18.686 16.796S23.56 9.53 17 4.103m8.175 15.911s2.9-9.033-.155-14" stroke="#A19B9B" stroke-width="2" stroke-linecap="round" stroke-linejoin="round"/><path d="M50.535 91.005c-3.028-24.541-10.426-51.316-25.556-69.06 5.255.936 11.356 2.145 18.093 3.48 19.821 3.929 45.15 8.949 70.655 11.329 18.861 1.76 38.009 2.106 55.406-.48 16.399-2.438 31.371-7.5 43.075-16.562 5.511 13.27 11.771 36.068 13.674 58.21 1.011 11.762.782 23.227-1.381 32.924-2.103 9.427-5.983 16.97-12.105 21.615-21.371-1.242-57.413-2.696-90.776-1.146-16.865.783-33.112 2.337-46.457 5.094-6.674 1.378-12.671 3.067-17.68 5.136-2.618 1.081-5.002 2.281-7.084 3.617.84-4.565 1.451-10.535 1.727-17.378.427-10.557.06-23.395-1.591-36.779z" stroke="#A19B9B" stroke-width="4"/><path d="M107 104c15.333 7.167 51.6 15.4 74-9" stroke="#A19B9B" stroke-width="2" stroke-linecap="round"/><path d="M128.781 66.792c.24.953.299 1.607.258 2.044-.039.415-.159.567-.238.636-.102.089-.309.193-.745.236-.434.042-.991.014-1.691-.07-.583-.069-1.219-.17-1.921-.281l-.419-.067a49.321 49.321 0 0 0-2.776-.375c-1.954-.196-4.123-.226-6.29.318-2.166.545-4.063 1.596-5.693 2.693a49.705 49.705 0 0 0-2.269 1.642l-.337.257c-.566.43-1.079.82-1.56 1.156-.578.405-1.056.693-1.458.861-.404.168-.636.174-.767.144-.103-.023-.281-.1-.511-.448-.243-.365-.499-.97-.739-1.923-1.884-7.5 2.668-15.106 10.167-16.99 7.498-1.884 15.105 2.668 16.989 10.167zm53.385 3.512c-.189.965-.414 1.582-.637 1.96-.212.36-.385.445-.487.474-.129.037-.361.043-.773-.104-.411-.147-.903-.41-1.501-.783a50.207 50.207 0 0 1-1.618-1.073l-.351-.239a49.09 49.09 0 0 0-2.352-1.521c-1.685-1.01-3.634-1.961-5.826-2.391-2.192-.43-4.356-.287-6.298.011-.972.15-1.901.34-2.752.52l-.415.088c-.696.148-1.325.283-1.904.382-.695.12-1.25.177-1.685.158-.438-.02-.65-.113-.756-.196-.083-.066-.211-.21-.272-.623-.063-.434-.038-1.09.151-2.055 1.489-7.588 8.847-12.531 16.434-11.042 7.588 1.49 12.531 8.847 11.042 16.434z" stroke="#A19B9B" stroke-width="2"/><circle cx="111.5" cy="62.5" r="2.5" fill="#A19B9B"/><circle cx="164.5" cy="60.5" r="2.5" fill="#A19B9B"/><path d="M27 23.5C49.833 42.333 86.3 93 49.5 145" stroke="#A19B9B" stroke-width="2"/></svg>