<svg width="98" height="98" fill="none" xmlns="http://www.w3.org/2000/svg"><path d="M48.935 38.873A4.824 4.824 0 0 1 44.1 34.04a4.824 4.824 0 0 1 4.835-4.835 4.824 4.824 0 0 1 4.834 4.835 4.824 4.824 0 0 1-4.834 4.834z" fill="#fff"/><path d="M48.935 19.077c-8.232 0-14.962 6.73-14.962 14.962C34.04 42.336 40.703 49 49 49c8.232 0 14.961-6.73 14.961-14.961 0-8.232-6.729-14.962-15.026-14.962zm0 25.154c-5.619 0-10.192-4.574-10.192-10.192 0-5.619 4.573-10.192 10.192-10.192 5.618 0 10.192 4.573 10.192 10.192 0 5.618-4.574 10.192-10.192 10.192z" fill="#fff"/><path d="M48.935 9.8C35.54 9.8 24.696 20.645 24.696 34.04c0 13.393 10.845 24.238 24.239 24.238 13.393 0 24.238-10.845 24.238-24.238C73.24 20.645 62.393 9.8 48.935 9.8c.065 0 0 0 0 0zm0 43.904c-10.846 0-19.666-8.82-19.666-19.665 0-10.846 8.82-19.666 19.666-19.666 10.845 0 19.665 8.82 19.665 19.666 0 10.845-8.82 19.665-19.665 19.665zM20.515 61.87h6.272v-4.115H9.669v4.116h6.338V81.34h4.508V61.87z" fill="#fff"/><path d="M30.053 63.7c-2.744 0-4.704.85-5.945 2.613l-.327.392 3.463 2.614.327-.458c.392-.653.98-1.045 2.678-1.045 2.614 0 2.875.719 2.875 1.568v1.176h-4.05c-4.051 0-5.88 2.679-5.88 5.357 0 3.332 2.547 5.554 6.337 5.554 1.633 0 2.809-.262 3.593-.915v.719h4.377v-11.76c-.065-3.855-2.548-5.815-7.448-5.815zm3.006 10.65v.718c0 2.025-.392 2.352-3.202 2.352-1.633 0-2.613-.588-2.613-1.568 0-.98.784-1.437 2.352-1.437h3.463v-.066zM43.055 65.007v-1.111h-4.312V81.34h4.312V70.952c0-2.156 1.372-2.94 2.678-2.94.719 0 1.372.261 1.895.719l.392.26 3.07-3.658-.391-.326c-2.222-1.764-5.358-1.764-7.644 0zM59.976 63.896v1.11a5.878 5.878 0 0 0-3.724-1.306c-1.83-.065-3.593.784-4.77 2.221-1.045 1.438-1.371 2.222-1.371 6.73 0 4.508.261 5.292 1.306 6.664 1.176 1.437 2.94 2.221 4.77 2.221a5.879 5.879 0 0 0 3.724-1.307v.523c0 1.895-1.242 3.07-3.267 3.07-1.11-.065-2.09-.522-2.875-1.371l-.326-.327-3.332 2.679.326.392c1.503 1.829 3.79 2.874 6.142 2.94 3.528 0 7.644-2.026 7.644-7.71V63.896h-4.247zm-2.744 13.328c-.85 0-1.699-.392-2.221-1.045-.458-.588-.523-.85-.523-3.528 0-2.679.065-2.94.523-3.528a2.818 2.818 0 0 1 3.985-.458c.196.131.327.262.457.458.458.588.523.914.523 3.528 0 2.613-.065 2.94-.523 3.528-.522.653-1.372 1.045-2.221 1.045zM72.716 63.7c-3.528 0-7.317 2.352-7.317 8.95 0 8.037 5.488 8.886 7.84 8.886a8.104 8.104 0 0 0 6.337-2.81l.327-.391-3.136-2.679-.327.327a4.994 4.994 0 0 1-3.201 1.437c-2.026 0-3.202-1.11-3.398-3.005H80.1v-3.267c.13-3.985-3.006-7.317-6.926-7.448h-.457zm2.94 6.925h-5.815c.196-1.764 1.307-2.809 2.94-2.809 1.634 0 2.614 1.045 2.875 2.81zM85.979 63.896v-6.141h-4.312v6.141h-1.634v3.528h1.634v9.343c0 2.744 1.829 4.573 4.508 4.573h2.221v-4.181h-1.764c-.457 0-.653-.066-.653-.719v-9.016h2.417v-3.528h-2.417zM19.339 83.039a2.356 2.356 0 0 0-1.307-.392h-2.09v5.357h1.24v-1.895h.98c.98.066 1.765-.718 1.83-1.698v-.066c0-.457-.196-.98-.653-1.306zm-1.176 1.894h-.915v-1.11h.915c.13 0 .326 0 .457.13.13.131.261.262.261.458a.586.586 0 0 1-.588.588l-.13-.066zm6.01-2.352c-.718 0-1.437.392-1.829 1.046-.196.326-.261.588-.261 1.698 0 1.111.065 1.372.261 1.699.653.98 1.96 1.307 2.94.653.261-.196.523-.392.653-.653.196-.327.262-.588.262-1.699 0-1.11-.066-1.372-.262-1.698-.326-.654-1.045-1.046-1.764-1.046zm.654 3.986c-.327.326-.85.392-1.176.065l-.066-.065c-.13-.196-.196-.262-.196-1.242s.066-1.045.196-1.241c.327-.327.85-.392 1.176-.065l.066.065c.13.196.196.261.196 1.241 0 .98-.066 1.046-.196 1.242zm3.92 1.437h1.241v-5.357h-1.241v5.357zm6.925-2.352l-1.96-3.005h-1.045v5.357h1.241v-3.005l1.96 3.005h1.11v-5.357h-1.24l-.066 3.005zm3.397-3.005v1.11h1.438v4.247h1.241v-4.247h1.372v-1.11h-4.05z" fill="#fff"/></svg>