<svg width="78" height="37" fill="none" xmlns="http://www.w3.org/2000/svg"><path d="M48.823 28.2a2.808 2.808 0 0 0 1.987 4.795 2.8 2.8 0 0 0 1.987-.822l9.222-9.225-3.973-3.97-9.223 9.223zm23.05-17.092L75.89 9.03l2.103-4.065-1.961-1.96-4.064 2.104-2.08 4.013-4.886 4.891L66.984 16l4.889-4.891z" fill="#fff"/><path d="M72.753 21.769l-.378-.038c-.686 0-1.335.14-1.942.365l-11.53-11.531a5.57 5.57 0 0 0 .365-1.942l-.037-.378c-.199-2.923-2.607-5.24-5.58-5.24-.866 0-1.677.212-2.409.562l3.732 3.732c.197.197.332.429.422.674a1.87 1.87 0 0 1-.422 1.974 1.867 1.867 0 0 1-1.323.549c-.221 0-.44-.05-.65-.128a1.863 1.863 0 0 1-.674-.423l-3.733-3.73a5.559 5.559 0 0 0-.561 2.408c0 2.974 2.316 5.382 5.24 5.58l.378.038c.685 0 1.335-.14 1.941-.364l11.528 11.53a5.658 5.658 0 0 0-.361 1.942l.04.378c.194 2.925 2.604 5.24 5.578 5.24a5.5 5.5 0 0 0 2.408-.562l-3.732-3.732a1.91 1.91 0 0 1-.425-.672 1.867 1.867 0 0 1 1.749-2.524c.22 0 .438.046.651.127.246.092.48.223.672.421l3.733 3.732a5.54 5.54 0 0 0 .561-2.408c-.001-2.974-2.318-5.382-5.241-5.58zM30.437 6.277C25.436 4.907 20.405 2.773 15.89.107a.764.764 0 0 0-.777 0c-4.647 2.742-9.406 4.76-14.55 6.17A.765.765 0 0 0 0 7.014v7.813C0 22.873 3.712 28.2 6.825 31.25c3.353 3.285 7.257 5.102 8.675 5.102 1.418 0 5.323-1.817 8.675-5.102C27.289 28.2 31 22.873 31 14.827V7.014a.764.764 0 0 0-.563-.737z" fill="#fff"/><path d="M10.815 16.483a2.139 2.139 0 0 0-1.58-.708 2.14 2.14 0 0 0-1.581.708c-.872.942-.872 2.476 0 3.419l4.058 4.39a2.14 2.14 0 0 0 1.58.708 2.14 2.14 0 0 0 1.581-.708l8.473-9.165c.872-.943.872-2.477 0-3.42a2.139 2.139 0 0 0-1.58-.707 2.14 2.14 0 0 0-1.58.708l-6.893 7.455-2.478-2.68z" fill="#F9BA00"/></svg>