<svg width="150" height="138" fill="none" xmlns="http://www.w3.org/2000/svg"><path d="M74.9 47.5c-4.1 0-7.4-3.3-7.4-7.4 0-4.1 3.3-7.4 7.4-7.4 4.1 0 7.4 3.3 7.4 7.4 0 4.1-3.3 7.4-7.4 7.4z" fill="#F9BA00"/><path d="M74.9 17.2C62.3 17.2 52 27.5 52 40.1 52.1 52.8 62.3 63 75 63c12.6 0 22.9-10.3 22.9-22.9 0-12.6-10.3-22.9-23-22.9zm0 38.5c-8.6 0-15.6-7-15.6-15.6s7-15.6 15.6-15.6 15.6 7 15.6 15.6-7 15.6-15.6 15.6z" fill="#F9BA00"/><path d="M74.9 3C54.4 3 37.8 19.6 37.8 40.1s16.6 37.1 37.1 37.1S112 60.6 112 40.1C112.1 19.6 95.5 3 74.9 3c.1 0 0 0 0 0zm0 67.2c-16.6 0-30.1-13.5-30.1-30.1S58.3 10 74.9 10 105 23.5 105 40.1 91.5 70.2 74.9 70.2z" fill="#F9BA00"/><path d="M31.4 82.7H41v-6.3H14.8v6.3h9.7v29.8h6.9V82.7z" fill="#555759"/><path d="M46 85.5c-4.2 0-7.2 1.3-9.1 4l-.5.6 5.3 4 .5-.7c.6-1 1.5-1.6 4.1-1.6 4 0 4.4 1.1 4.4 2.4V96h-6.2c-6.2 0-9 4.1-9 8.2 0 5.1 3.9 8.5 9.7 8.5 2.5 0 4.3-.4 5.5-1.4v1.1h6.7v-18c-.1-5.9-3.9-8.9-11.4-8.9zm4.6 16.3v1.1c0 3.1-.6 3.6-4.9 3.6-2.5 0-4-.9-4-2.4s1.2-2.2 3.6-2.2h5.3v-.1zM65.9 87.5v-1.7h-6.6v26.7h6.6V96.6c0-3.3 2.1-4.5 4.1-4.5 1.1 0 2.1.4 2.9 1.1l.6.4 4.7-5.6-.6-.5c-3.4-2.7-8.2-2.7-11.7 0zM91.8 85.8v1.7c-1.6-1.3-3.6-2-5.7-2-2.8-.1-5.5 1.2-7.3 3.4-1.6 2.2-2.1 3.4-2.1 10.3s.4 8.1 2 10.2c1.8 2.2 4.5 3.4 7.3 3.4 2.1 0 4.1-.7 5.7-2v.8c0 2.9-1.9 4.7-5 4.7-1.7-.1-3.2-.8-4.4-2.1l-.5-.5-5.1 4.1.5.6c2.3 2.8 5.8 4.4 9.4 4.5 5.4 0 11.7-3.1 11.7-11.8V85.8h-6.5zm-4.2 20.4c-1.3 0-2.6-.6-3.4-1.6-.7-.9-.8-1.3-.8-5.4 0-4.1.1-4.5.8-5.4 1.5-1.9 4.2-2.2 6.1-.7.3.2.5.4.7.7.7.9.8 1.4.8 5.4s-.1 4.5-.8 5.4c-.8 1-2.1 1.6-3.4 1.6zM111.3 85.5c-5.4 0-11.2 3.6-11.2 13.7 0 12.3 8.4 13.6 12 13.6 3.7.1 7.3-1.5 9.7-4.3l.5-.6-4.8-4.1-.5.5c-1.3 1.3-3.1 2.1-4.9 2.2-3.1 0-4.9-1.7-5.2-4.6h15.7v-5c.2-6.1-4.6-11.2-10.6-11.4h-.7zm4.5 10.6h-8.9c.3-2.7 2-4.3 4.5-4.3s4 1.6 4.4 4.3zM131.6 85.8v-9.4H125v9.4h-2.5v5.4h2.5v14.3c0 4.2 2.8 7 6.9 7h3.4v-6.4h-2.7c-.7 0-1-.1-1-1.1V91.2h3.7v-5.4h-3.7zM29.6 115.1c-.6-.4-1.3-.6-2-.6h-3.2v8.2h1.9v-2.9h1.5c1.5.1 2.7-1.1 2.8-2.6v-.1c0-.7-.3-1.5-1-2zm-1.8 2.9h-1.4v-1.7h1.4c.2 0 .5 0 .7.2.2.2.4.4.4.7 0 .5-.4.9-.9.9l-.2-.1zm9.2-3.6c-1.1 0-2.2.6-2.8 1.6-.3.5-.4.9-.4 2.6 0 1.7.1 2.1.4 2.6 1 1.5 3 2 4.5 1 .4-.3.8-.6 1-1 .3-.5.4-.9.4-2.6 0-1.7-.1-2.1-.4-2.6-.5-1-1.6-1.6-2.7-1.6zm1 6.1c-.5.5-1.3.6-1.8.1l-.1-.1c-.2-.3-.3-.4-.3-1.9s.1-1.6.3-1.9c.5-.5 1.3-.6 1.8-.1l.1.1c.2.3.3.4.3 1.9s-.1 1.6-.3 1.9zm6 2.2h1.9v-8.2H44v8.2zm10.6-3.6l-3-4.6H50v8.2h1.9v-4.6l3 4.6h1.7v-8.2h-1.9l-.1 4.6zm5.2-4.6v1.7H62v6.5h1.9v-6.5H66v-1.7h-6.2z" fill="#555759"/></svg>