<svg width="73" height="39" fill="none" xmlns="http://www.w3.org/2000/svg"><g clip-path="url(#clip0)"><path d="M38.35 11.087v-.037c0-.006-.004-.015-.004-.023a.652.652 0 0 0-.038-.206l-3.583-9.56A1.95 1.95 0 0 0 32.896 0H6.104a1.95 1.95 0 0 0-1.831 1.267L.692 10.822a.652.652 0 0 0-.038.206c0 .008-.004.014-.004.023v.088a5.144 5.144 0 0 0 3.25 4.716V37.05A1.95 1.95 0 0 0 5.85 39h27.3a1.95 1.95 0 0 0 1.95-1.95V15.855a5.144 5.144 0 0 0 3.243-4.716v-.027c0-.01.007-.017.007-.025zm-10.454.613a3.9 3.9 0 0 1-7.692 0h7.692zm-9.1 0a3.9 3.9 0 0 1-7.692 0h7.692zm-16.793 0h7.689c0 .014-.005.027-.007.04a3.753 3.753 0 0 1-.188.678 3.764 3.764 0 0 1-.25.542l-.041.065a3.883 3.883 0 0 1-.354.508l-.007.008a3.9 3.9 0 0 1-.434.44l-.048.045a3.936 3.936 0 0 1-.484.346l-.085.052a3.86 3.86 0 0 1-.531.254l-.096.036c-.19.069-.385.123-.584.162-.026.005-.053.008-.079.012a3.89 3.89 0 0 1-.654.062 3.9 3.9 0 0 1-3.847-3.25zM33.8 37.05a.65.65 0 0 1-.65.65H27.3V21.45a1.95 1.95 0 0 0-1.95-1.95h-11.7a1.95 1.95 0 0 0-1.95 1.95V37.7H5.85a.65.65 0 0 1-.65-.65V16.21a5.229 5.229 0 0 0 1.162.014c.056-.005.111-.016.167-.023.11-.015.222-.03.33-.051.065-.013.13-.03.195-.046.097-.023.195-.046.289-.074.065-.02.13-.044.195-.065.089-.031.178-.065.265-.098.065-.026.13-.056.195-.086a4.892 4.892 0 0 0 1.057-.644 5.192 5.192 0 0 0 .52-.465c.065-.065.123-.134.184-.203.045-.052.092-.103.135-.157.06-.074.115-.151.171-.228.039-.054.078-.105.115-.16.058-.087.11-.178.164-.269.018-.031.038-.06.055-.092a5.195 5.195 0 0 0 9.1 0 5.195 5.195 0 0 0 9.1 0c.018.032.038.061.056.092.054.091.106.182.164.27.037.054.076.105.115.159.055.077.11.154.17.228.044.054.09.105.136.157.06.069.12.137.184.203.05.05.102.1.153.148a5.236 5.236 0 0 0 .989.738c.065.036.125.071.189.104.08.043.163.081.245.119.066.03.13.06.196.086.086.036.176.065.265.098.065.023.13.046.195.065.095.028.195.051.288.074.065.015.13.033.195.046.109.021.22.036.33.05.056.008.112.019.168.024a5.137 5.137 0 0 0 1.163-.014v20.84zm.462-22.261a3.824 3.824 0 0 1-1.766.102c-.026-.005-.053-.007-.079-.012a3.847 3.847 0 0 1-.584-.163l-.096-.035a3.992 3.992 0 0 1-.531-.255l-.085-.051a3.955 3.955 0 0 1-.484-.347l-.048-.044a3.915 3.915 0 0 1-.434-.44l-.007-.008c-.131-.16-.25-.33-.354-.509l-.04-.065a3.765 3.765 0 0 1-.286-.637 3.74 3.74 0 0 1-.153-.582c0-.013-.004-.027-.007-.04h7.689a3.867 3.867 0 0 1-2.735 3.086z" fill="#fff"/></g><path d="M60.5 4c-4.992 0-9.054 4.062-9.054 9.054 0 6.196 8.102 15.291 8.447 15.676.324.36.89.36 1.214 0 .345-.385 8.447-9.48 8.447-15.676C69.554 8.062 65.492 4 60.5 4zm0 13.61a4.56 4.56 0 0 1-4.555-4.556A4.56 4.56 0 0 1 60.5 8.499a4.56 4.56 0 0 1 4.555 4.555A4.56 4.56 0 0 1 60.5 17.61z" fill="#fff"/><ellipse cx="60" cy="32.5" rx="10" ry="1.5" fill="#fff"/><defs><clipPath id="clip0"><path fill="#fff" d="M0 0h39v39H0z"/></clipPath></defs></svg>