<svg width="90" height="51" fill="none" xmlns="http://www.w3.org/2000/svg"><path fill="#fff" d="M0 0h90v51H0z"/><path d="M65.22 43.916c0 .367.285.665.636.665h15.308c1.288 0 2.336-1.095 2.336-2.442v-1.674c0-1.346-1.048-2.442-2.336-2.442H50.157a.642.642 0 0 0-.23.046l-5.16 2.11a1.197 1.197 0 0 0 0 2.247l5.16 2.11a.649.649 0 0 0 .23.045h17.735c.351 0 .636-.298.636-.665 0-.367-.285-.665-.636-.665H50.796v.665h24.813v-.665h-9.753c-.351 0-.636.298-.636.665zM15.321 5.195L5.722 15.228a.69.69 0 0 0-.186.47v17.785c0 1.07.833 1.942 1.857 1.942h39.674c1.056 0 1.916-.898 1.916-2.002V6.966C48.983 5.882 48.139 5 47.1 5h-31.33a.624.624 0 0 0-.45.195z" fill="#1DD9B7"/><path d="M13.307 9.221l-3.572 3.633c-.625.636-.17 1.71.722 1.702l3.602-.031a1 1 0 0 0 .992-1.009l-.031-3.602c-.008-.891-1.089-1.328-1.713-.693z" fill="#fff"/><ellipse cx="25.983" cy="23.5" rx="7" ry="7" transform="rotate(-90 25.983 23.5)" fill="#fff"/><rect x="26.983" y="22.5" width="12" height="12" rx="1" transform="rotate(-90 26.983 22.5)" fill="#fff" stroke="#07BBF0" stroke-width="2"/></svg>