<svg width="244" height="241" fill="none" xmlns="http://www.w3.org/2000/svg"><path d="M54.747 188.885s41.081 10.077 92.059-2.32c50.977-12.397 88.673-41.633 88.673-41.633" stroke="#A19B9B" stroke-width="5" stroke-linecap="round" stroke-linejoin="round"/><path d="M74.362 212.416s34.142 8.163 78.115-2.531c43.973-10.693 72.496-34.096 72.496-34.096" stroke="#A19B9B" stroke-width="4" stroke-linecap="round" stroke-linejoin="round"/><path d="M113.307 228.673s11.361 7.529 43.66-.326c32.299-7.854 38.789-16.122 38.789-16.122" stroke="#A19B9B" stroke-width="3" stroke-linecap="round" stroke-linejoin="round"/><path d="M40.029 82.78l-.337 6.277m4.083-3.255l-.337 6.278m3.514-4.805L46.9 94.33m3.126-4.664l-.156 7.97m3.089-5.968l-.609 10.335m3.967-7.169l-.92 13.086m4.136-10.308l-.88 14.39m20.679 19.238l-2.096 21.87m-14.732-52.191l-1.372 15.45m4.485-11.755l-.946 16.613m4.729-12.285l-1.397 18.977m4.446-13.06l-1.709 21.728m5.286-15.565l-1.98 25.784" stroke="#A19B9B" stroke-linecap="round" stroke-linejoin="round"/><path d="M63.836 181.322c7.674-5.451 15.4-17.954 15.4-17.954m-.878 1.201s-1.203 12.311-9.303 16.598m9.51-18.432s2.427 11.42-1.049 17.529m1.656-14.674s4.882 6.123 3.977 10.851m103.907-49.952c7.674-5.45 15.401-17.954 15.401-17.954m-.878 1.201s-1.204 12.311-9.304 16.599m9.511-18.433s2.427 11.42-1.049 17.53m1.655-14.675s4.883 6.124 3.978 10.852M184.037 4.307C176.304 9.672 168.44 22.09 168.44 22.09m.892-1.192s1.338-12.296 9.485-16.494m-9.713 18.326s-2.301-11.446 1.242-17.517m-1.817 14.656s-4.814-6.177-3.857-10.895M2.104 72.745c9.37-.903 23.396 3.492 23.396 3.492m-1.45-.334s-8.969-8.519-17.9-6.458m19.256 7.71s-5.64-10.222-12.267-12.566M23.996 74.6s-.317-7.826-4.096-10.808" stroke="#A19B9B" stroke-width="2" stroke-linecap="round" stroke-linejoin="round"/><path d="M64.132 122.263c-9.173-17.876-22.264-36.285-38.73-45.934 4.108-.713 8.837-1.455 14.022-2.268 16.489-2.588 37.595-5.9 58.056-11.305 15.134-3.998 30.104-9.178 42.888-16.144 11.9-6.483 22.018-14.575 28.567-24.808 7.995 8.76 19.117 24.43 26.769 40.81 4.117 8.812 7.182 17.728 8.253 25.811 1.035 7.806.187 14.621-3.121 19.851-16.937 5.117-45.224 14.215-70.599 24.875-12.858 5.402-25.028 11.229-34.612 17.172-4.792 2.971-8.98 5.997-12.296 9.043-1.515 1.391-2.869 2.806-4.022 4.242-.679-3.676-1.856-8.21-3.472-13.237-2.674-8.321-6.612-18.186-11.703-28.108z" stroke="#A19B9B" stroke-width="4"/><mask id="a" fill="#fff"><path d="M111.28 116.454c13.921 1.199 54.803 7.046 54.803-27.999-.4 11.2-41.23 24.514-54.803 27.999z"/></mask><path d="M111.28 116.454l-.497-1.937a2.001 2.001 0 0 0 .326 3.93l.171-1.993zm54.803-27.999h2l-3.999-.071 1.999.071zm-54.974 29.992c6.815.587 20.9 2.405 33.244-.453 6.213-1.438 12.176-4.097 16.59-8.85 4.449-4.791 7.14-11.511 7.14-20.689h-4c0 8.345-2.42 14.036-6.071 17.967-3.686 3.97-8.814 6.345-14.561 7.676-11.577 2.68-24.894.975-31.999.363l-.343 3.986zm.669-.056c6.866-1.763 20.568-5.994 32.637-11.207 6.025-2.603 11.734-5.489 15.994-8.482 2.129-1.496 3.969-3.068 5.308-4.704 1.33-1.624 2.293-3.468 2.364-5.471l-3.997-.143c-.029.796-.429 1.819-1.462 3.08-1.023 1.25-2.545 2.582-4.512 3.965-3.932 2.762-9.353 5.522-15.282 8.083-11.839 5.115-25.338 9.283-32.045 11.005l.995 3.874z" fill="#A19B9B" mask="url(#a)"/><path d="M117.449 81.523c.911 1.339.951 2.036.839 2.403-.12.394-.532.824-1.543 1.342-.699.358-1.524.683-2.472 1.057-.403.159-.828.326-1.275.509-1.455.594-3.059 1.318-4.561 2.34-1.502 1.022-2.727 2.223-3.761 3.324a95.01 95.01 0 0 0-.967 1.052c-.615.676-1.14 1.253-1.655 1.716-.772.693-1.222.841-1.542.798-.343-.047-.957-.368-1.886-1.734-3.537-5.197-2.19-12.278 3.008-15.815 5.197-3.536 12.278-2.19 15.815 3.008zm42.35-12.514c.248 1.564.05 2.483-.304 3.056-.349.567-.962.98-1.959 1.285-1.01.309-2.278.467-3.79.613l-.847.08c-1.265.117-2.649.246-4.056.47-1.425.226-2.772.533-3.985.81-.258.06-.51.117-.756.172-1.431.321-2.605.55-3.578.559-.951.008-1.579-.196-2.035-.618-.477-.443-.923-1.272-1.175-2.856-.986-6.21 3.248-12.042 9.457-13.028 6.209-.986 12.041 3.248 13.028 9.457z" stroke="#A19B9B" stroke-width="2"/><circle cx="107.648" cy="81.648" r="2.064" transform="rotate(-20.128 107.648 81.648)" fill="#A19B9B"/><circle cx="150.648" cy="64.648" r="2.064" transform="rotate(-20.128 150.648 64.648)" fill="#A19B9B"/><path d="M26.401 76.783c23.05 8.112 65.71 37.025 51.957 87.786" stroke="#A19B9B" stroke-width="2"/></svg>