<svg width="296" height="50" fill="none" xmlns="http://www.w3.org/2000/svg"><path stroke="#F9BA00" d="M193.289 8.289h94.421v33.079h-94.421zM185.5 30.658V19h7.276v11.658zM186.704 30.914v-12.17M295.5 19v11.658h-7.276V19zM294.296 18.743v12.172M203.513.5h11.658v7.276h-11.658zM203.257 1.704h12.171M219.092.5h11.658v7.276h-11.658zM218.836 1.704h12.171M234.184.5h11.658v7.276h-11.658zM233.928 1.704h12.171M249.276.5h11.658v7.276h-11.658zM249.02 1.704h12.171M264.855.5h11.658v7.276h-11.658zM264.599 1.704h12.171M246.329 49.158h-11.658v-7.276h11.658zM246.586 47.954h-12.171M230.75 49.158h-11.658v-7.276h11.658zM231.007 47.954h-12.171M278.461 49.158h-11.658v-7.276h11.658zM278.717 47.954h-12.171M262.882 49.158h-11.658v-7.276h11.658zM263.138 47.954h-12.171M215.171 49.158h-11.658v-7.276h11.658zM215.428 47.954h-12.171"/><path d="M208.612 8.763v32.619M224.921 8.763v32.619" stroke="#F9BA00" stroke-linecap="round" stroke-dasharray="4 4"/><path stroke="#F9BA00" d="M104.298 8.297h60.405v33.114h-60.405zM113.557.5h11.671v7.285h-11.671zM113.301 1.706h12.183M96.5 30.69V19.019h7.285v11.67zM97.706 30.946V18.763M172.5 19.019v11.67h-7.285V19.02zM171.294 18.763v12.183M129.152.5h11.671v7.285h-11.671zM128.896 1.706h12.183M144.26.5h11.671v7.285H144.26zM144.003 1.706h12.184M155.93 49.208h-11.671v-7.285h11.671zM156.187 48.003h-12.184M140.335 49.208h-11.671v-7.285h11.671zM140.592 48.003h-12.184M124.74 49.208h-11.671v-7.285h11.671zM124.997 48.003h-12.184M12.999 13.422l-1.311-1.748h3.34l.724 1.932a2 2 0 0 1-.026 1.47L3.672 44.07H1l12.238-28.663A2 2 0 0 0 13 13.422zM73.167 13.422l1.311-1.748h-3.34l-.724 1.932a2 2 0 0 0 .026 1.47L82.494 44.07h2.672L72.928 15.408a2 2 0 0 1 .239-1.986zM1.834 10.504H85v1.004H1.834z"/><path fill="#F9BA00" d="M1.334 8H85.5v2.004H1.334z"/></svg>