<svg width="265" height="256" fill="none" xmlns="http://www.w3.org/2000/svg"><path d="M163.166 189.029l23.883-28.001h-16.471l-15.647-6.176 8.235 34.177z" fill="#A19B9B"/><path d="M155.655 148.35l19.431-97.198c1.783-8.92 10.46-14.706 19.38-12.923 8.92 1.783 14.706 10.46 12.923 19.38l-19.431 97.198c-1.083 5.416-6.351 8.929-11.766 7.846l-12.692-2.537c-5.415-1.083-8.928-6.351-7.845-11.766z" fill="#A19B9B"/><path d="M173.049 54.378c2.882 4.736 16.883 13.177 34.589 7.104M171.402 62.613c3.02 4.653 17.687 12.944 36.236 6.979M154.107 152.769c3.02 4.652 17.687 12.943 36.236 6.978M158.509 175.828s7.951 5.765 15.363 3.706" stroke="#fff" stroke-width="4" stroke-linecap="round" stroke-linejoin="round"/><path d="M107 205h131.75c13.393 0 24.25 10.857 24.25 24.25v0c0 13.393-10.857 24.25-24.25 24.25H33" stroke="#A19B9B" stroke-width="4" stroke-linecap="round" stroke-linejoin="round"/><path d="M38 63.666c-1-3.5-4-46.5 15.5-55.5M39.635 64c-1.898-3.106-16.95-43.122-.558-57M36.135 64c-2.704-2.437-24.96-37.957-13.198-55.928" stroke="#A19B9B" stroke-width="2" stroke-linecap="round"/><path d="M16.068 64.408c2.456.63 5.82 1.266 10.005 1.526 8.723.541 20.968-.55 35.956-6.649-1.25 7.638-2.012 15.703-1.527 22.924.556 8.294 2.79 15.992 8.403 20.368l.542.423h.688c7.057 0 13.427 3.406 18.535 9.025 5.117 5.628 8.88 13.399 10.631 21.82 3.512 16.89-1.148 35.704-18.119 44.896-18.68 10.119-36.396 10.086-49.997 5.71-6.815-2.192-12.586-5.472-16.922-9.101-4.363-3.653-7.156-7.558-8.22-10.949-3.512-11.187-4.92-21.455-3.238-30.48 1.667-8.948 6.395-16.83 15.488-23.291 4.49-3.19 6.21-8.248 6.47-13.589.26-5.33-.908-11.24-2.51-16.658-1.61-5.443-3.699-10.52-5.378-14.227-.282-.622-.552-1.206-.807-1.748z" stroke="#A19B9B" stroke-width="4" stroke-linecap="round"/><circle cx="32.271" cy="129.271" r="2.5" transform="rotate(-22.68 32.27 129.271)" fill="#A19B9B"/><circle cx="66.004" cy="123.004" r="2.5" transform="rotate(13.178 66.004 123.004)" fill="#A19B9B"/><path d="M38.956 161.159c10.515 8.383 27.52 3.216 29.179-10.159" stroke="#A19B9B" stroke-width="2" stroke-linecap="round" stroke-linejoin="round"/><path d="M13.135 61c9.666-4.667 30.9-12.1 50.5-4.5" stroke="#A19B9B" stroke-width="2" stroke-linecap="round"/><path d="M39.344 128.049c.456 1.09.526 1.879.408 2.47-.115.581-.435 1.093-.996 1.593-.574.513-1.368.982-2.364 1.46-.822.394-1.73.772-2.713 1.18l-.635.265-.635.266c-.981.412-1.888.794-2.745 1.101-1.04.373-1.933.608-2.701.656-.75.048-1.339-.085-1.833-.411-.504-.332-1.015-.935-1.471-2.025a8.5 8.5 0 0 1 15.685-6.555zM72.406 123.866c.221 1.161.127 1.947-.11 2.501-.232.545-.65.98-1.302 1.354-.667.384-1.54.68-2.614.943-.885.217-1.851.399-2.897.597l-.676.128-.676.13c-1.045.202-2.011.388-2.914.512-1.094.151-2.016.198-2.777.087-.744-.108-1.293-.358-1.71-.779-.424-.428-.801-1.124-1.023-2.285a8.5 8.5 0 0 1 6.755-9.943 8.5 8.5 0 0 1 9.944 6.755z" stroke="#A19B9B" stroke-width="2"/><circle cx="58.635" cy="8.5" r="4.5" fill="#A19B9B" stroke="#A19B9B" stroke-width="2"/><circle cx="43.635" cy="8.5" r="4.5" fill="#A19B9B" stroke="#A19B9B" stroke-width="2"/><circle cx="27.635" cy="5.5" r="4.5" fill="#A19B9B" stroke="#A19B9B" stroke-width="2"/></svg>