<svg width="192" height="372" fill="none" xmlns="http://www.w3.org/2000/svg"><path d="M3 192.5S40.537 212 93 212s96-19.5 96-19.5" stroke="#A19B9B" stroke-width="5" stroke-linecap="round" stroke-linejoin="round"/><path d="M16.5 220s31.245 16 76.5 16c45.255 0 78.5-16 78.5-16" stroke="#A19B9B" stroke-width="4" stroke-linecap="round" stroke-linejoin="round"/><path d="M50.5 245s9.26 10 42.5 10 41.5-6.5 41.5-6.5" stroke="#A19B9B" stroke-width="3" stroke-linecap="round" stroke-linejoin="round"/><path d="M66.42 354.653l8.293-16.389c1.655-3.254 5.747-4.508 9.121-2.79l8.246 4.196c.322-.345.654-.704 1.003-1.084 3.212-3.46 7.606-8.2 11.405-15.713 3.812-7.53 5.033-13.894 5.929-18.541.094-.492.183-.966.276-1.419l-5.533-2.81-2.722-1.388c-3.379-1.72-4.78-5.773-3.133-9.032l8.293-16.39c1.649-3.256 5.742-4.511 9.122-2.79l4.619 2.368-.064.125a21.214 21.214 0 0 1 4.518 4.128c1.244 1.546 2.21 3.094 2.951 4.719 6.048 12.997 3.918 27.377-7.342 49.624-15.565 30.75-34.786 35.089-35.618 35.266-1.821.363-3.637.491-5.56.385a21.06 21.06 0 0 1-5.968-1.214l-.053.092-4.65-2.305c-3.374-1.722-4.778-5.775-3.134-9.038z" fill="#A19B9B"/><path d="M77.865 63.666c-1-3.5-4-46.5 15.5-55.5M79.5 64c-1.898-3.106-16.95-43.122-.558-57M76 64c-2.704-2.437-24.96-37.957-13.198-55.928" stroke="#A19B9B" stroke-width="2" stroke-linecap="round"/><path d="M55.933 64.408c2.456.63 5.82 1.266 10.006 1.526 8.723.541 20.967-.55 35.955-6.649-1.25 7.638-2.011 15.703-1.527 22.924.556 8.294 2.79 15.992 8.403 20.368l.542.423H110c7.057 0 13.428 3.406 18.536 9.025 5.116 5.628 8.88 13.399 10.631 21.82 3.511 16.89-1.148 35.704-18.12 44.896-18.685 10.122-35.99 10.083-49.376 5.713-13.504-4.409-22.86-13.155-25.827-20.227-4.485-10.695-5.88-20.899-3.961-29.974 1.911-9.038 7.148-17.138 16.275-23.623 4.49-3.19 6.21-8.248 6.47-13.589.26-5.33-.908-11.24-2.51-16.658-1.61-5.443-3.699-10.52-5.378-14.227-.281-.622-.552-1.206-.807-1.748z" stroke="#A19B9B" stroke-width="4" stroke-linecap="round"/><circle cx="67.27" cy="130.271" r="2.5" transform="rotate(-22.68 67.27 130.271)" fill="#A19B9B"/><circle cx="101.004" cy="124.004" r="2.5" transform="rotate(13.178 101.004 124.004)" fill="#A19B9B"/><path d="M78.821 161.159c10.515 8.383 27.52 3.216 29.179-10.159" stroke="#A19B9B" stroke-width="2" stroke-linecap="round" stroke-linejoin="round"/><path d="M53 61c9.666-4.667 30.9-12.1 50.5-4.5" stroke="#A19B9B" stroke-width="2" stroke-linecap="round"/><path d="M79.21 128.049c.456 1.09.525 1.879.408 2.47-.116.581-.435 1.093-.996 1.593-.575.513-1.368.982-2.365 1.46-.821.394-1.73.772-2.712 1.18l-.636.265-.634.266c-.982.412-1.888.794-2.746 1.101-1.04.373-1.932.608-2.7.656-.75.048-1.34-.085-1.833-.411-.504-.332-1.016-.935-1.472-2.025a8.5 8.5 0 0 1 15.686-6.555zM112.271 123.866c.221 1.161.127 1.947-.109 2.501-.233.545-.651.98-1.302 1.354-.668.384-1.542.68-2.615.943-.885.217-1.851.399-2.897.597l-.676.128-.676.13c-1.045.202-2.011.388-2.914.512-1.094.151-2.015.198-2.777.087-.744-.108-1.293-.358-1.71-.779-.424-.428-.801-1.124-1.023-2.285a8.5 8.5 0 0 1 16.699-3.188z" stroke="#A19B9B" stroke-width="2"/><circle cx="98.5" cy="8.5" r="4.5" fill="#A19B9B" stroke="#A19B9B" stroke-width="2"/><circle cx="83.5" cy="8.5" r="4.5" fill="#A19B9B" stroke="#A19B9B" stroke-width="2"/><circle cx="67.5" cy="5.5" r="4.5" fill="#A19B9B" stroke="#A19B9B" stroke-width="2"/><path d="M97.031 96.895c1.148 3.808 1.049 7.205-.22 7.588-1.27.382-1.106-2.574-2.254-6.382-1.147-3.808-3.171-7.026-1.902-7.409 1.27-.382 3.229 2.395 4.376 6.203zM57.098 159.609c1.699 4.435 4.624 7.102 2.998 7.724-1.626.623-4.321-2.467-6.02-6.902-1.699-4.435-1.758-8.535-.132-9.157 1.626-.623 1.455 3.9 3.154 8.335z" fill="#A19B9B"/></svg>