<svg width="92" height="45" fill="none" xmlns="http://www.w3.org/2000/svg"><path fill="#fff" d="M0 0h92v45H0z"/><path d="M53.323 33.201a2.808 2.808 0 0 0 1.987 4.794 2.8 2.8 0 0 0 1.987-.822l9.222-9.225-3.973-3.97-9.223 9.223zM76.373 16.108l4.017-2.077 2.103-4.065-1.961-1.96-4.064 2.104-2.08 4.013-4.886 4.892L71.483 21l4.89-4.892z" fill="#F9BA00"/><path d="M77.253 26.769l-.378-.037c-.686 0-1.335.14-1.942.365l-11.53-11.532a5.57 5.57 0 0 0 .365-1.942l-.037-.378c-.199-2.923-2.607-5.24-5.58-5.24-.866 0-1.677.212-2.409.562l3.732 3.732c.197.197.332.43.422.674a1.87 1.87 0 0 1-.422 1.974 1.867 1.867 0 0 1-1.323.549c-.221 0-.44-.049-.65-.128a1.863 1.863 0 0 1-.674-.423l-3.733-3.73a5.558 5.558 0 0 0-.561 2.408c0 2.974 2.316 5.382 5.24 5.58l.378.038c.685 0 1.335-.14 1.941-.363l11.528 11.53a5.658 5.658 0 0 0-.361 1.941l.04.379c.194 2.925 2.604 5.24 5.578 5.24a5.5 5.5 0 0 0 2.408-.563l-3.732-3.732a1.911 1.911 0 0 1-.425-.672 1.867 1.867 0 0 1 1.749-2.524c.22 0 .438.047.651.127.246.092.48.223.672.422l3.733 3.732a5.539 5.539 0 0 0 .561-2.409c-.001-2.973-2.318-5.381-5.241-5.58zM34.937 11.277c-5.001-1.37-10.032-3.504-14.548-6.17a.764.764 0 0 0-.777 0c-4.647 2.742-9.406 4.76-14.55 6.17a.765.765 0 0 0-.562.737v7.813c0 8.046 3.712 13.372 6.825 16.422 3.353 3.285 7.258 5.101 8.675 5.101 1.418 0 5.323-1.816 8.675-5.1 3.114-3.051 6.825-8.377 6.825-16.423v-7.813a.765.765 0 0 0-.563-.737z" fill="#F9BA00"/><path d="M15.315 21.483a2.139 2.139 0 0 0-1.58-.708 2.14 2.14 0 0 0-1.582.708c-.87.942-.87 2.476 0 3.419l4.06 4.39a2.14 2.14 0 0 0 1.58.708 2.14 2.14 0 0 0 1.58-.708l8.473-9.165c.872-.943.872-2.477 0-3.42a2.139 2.139 0 0 0-1.58-.707 2.14 2.14 0 0 0-1.58.708l-6.893 7.455-2.478-2.68z" fill="#fff"/></svg>
