<svg width="150" height="138" viewBox="0 0 150 138" fill="none" xmlns="http://www.w3.org/2000/svg">
<path d="M74.9 47.5C70.8 47.5 67.5 44.1999 67.5 40.0999C67.5 35.9999 70.8 32.7 74.9 32.7C79 32.7 82.3 35.9999 82.3 40.0999C82.3 44.1999 79 47.5 74.9 47.5Z" fill="#F9BA00"/>
<path d="M74.9 17.2C62.3 17.2 52 27.4999 52 40.0999C52.1 52.7999 62.3 63 75 63C87.6 63 97.9 52.7 97.9 40.0999C97.9 27.4999 87.6 17.2 74.9 17.2ZM74.9 55.6999C66.3 55.6999 59.3 48.6999 59.3 40.0999C59.3 31.4999 66.3 24.5 74.9 24.5C83.5 24.5 90.5 31.4999 90.5 40.0999C90.5 48.6999 83.5 55.6999 74.9 55.6999Z" fill="#F9BA00"/>
<path d="M74.9 3C54.4 3 37.8 19.6 37.8 40.1C37.8 60.6 54.4 77.2 74.9 77.2C95.4 77.2 112 60.6 112 40.1C112.1 19.6 95.5 3 74.9 3C75 3 74.9 3 74.9 3ZM74.9 70.2C58.3 70.2 44.8 56.7 44.8 40.1C44.8 23.5 58.3 10 74.9 10C91.5 10 105 23.5 105 40.1C105 56.7 91.5 70.2 74.9 70.2Z" fill="#F9BA00"/>
<path d="M31.4 82.6999H41V76.3999H14.8V82.6999H24.5V112.5H31.4V82.6999Z" fill="#555759"/>
<path d="M46 85.5C41.8 85.5 38.8 86.8 36.9 89.5L36.4 90.1L41.7 94.1L42.2 93.4C42.8 92.4 43.7 91.8 46.3 91.8C50.3 91.8 50.7 92.9 50.7 94.2V96H44.5C38.3 96 35.5 100.1 35.5 104.2C35.5 109.3 39.4 112.7 45.2 112.7C47.7 112.7 49.5 112.3 50.7 111.3V112.4H57.4V94.4C57.3 88.5 53.5 85.5 46 85.5ZM50.6 101.8V102.9C50.6 106 50 106.5 45.7 106.5C43.2 106.5 41.7 105.6 41.7 104.1C41.7 102.6 42.9 101.9 45.3 101.9H50.6V101.8Z" fill="#555759"/>
<path d="M65.9 87.5001V85.8001H59.3V112.5H65.9V96.6001C65.9 93.3001 68 92.1001 70 92.1001C71.1 92.1001 72.1 92.5001 72.9 93.2001L73.5 93.6001L78.2 88.0001L77.6 87.5001C74.2 84.8001 69.4 84.8001 65.9 87.5001Z" fill="#555759"/>
<path d="M91.8 85.8V87.5C90.2 86.2 88.2 85.5 86.1 85.5C83.3 85.4 80.6 86.7 78.8 88.9C77.2 91.1 76.7 92.3 76.7 99.2C76.7 106.1 77.1 107.3 78.7 109.4C80.5 111.6 83.2 112.8 86 112.8C88.1 112.8 90.1 112.1 91.7 110.8V111.6C91.7 114.5 89.8 116.3 86.7 116.3C85 116.2 83.5 115.5 82.3 114.2L81.8 113.7L76.7 117.8L77.2 118.4C79.5 121.2 83 122.8 86.6 122.9C92 122.9 98.3 119.8 98.3 111.1V85.8H91.8ZM87.6 106.2C86.3 106.2 85 105.6 84.2 104.6C83.5 103.7 83.4 103.3 83.4 99.2C83.4 95.1 83.5 94.7 84.2 93.8C85.7 91.9 88.4 91.6 90.3 93.1C90.6 93.3 90.8 93.5 91 93.8C91.7 94.7 91.8 95.2 91.8 99.2C91.8 103.2 91.7 103.7 91 104.6C90.2 105.6 88.9 106.2 87.6 106.2Z" fill="#555759"/>
<path d="M111.3 85.5C105.9 85.5 100.1 89.1 100.1 99.2C100.1 111.5 108.5 112.8 112.1 112.8C115.8 112.9 119.4 111.3 121.8 108.5L122.3 107.9L117.5 103.8L117 104.3C115.7 105.6 113.9 106.4 112.1 106.5C109 106.5 107.2 104.8 106.9 101.9H122.6V96.9C122.8 90.8 118 85.7 112 85.5C111.7 85.5 111.5 85.5 111.3 85.5ZM115.8 96.1H106.9C107.2 93.4 108.9 91.8 111.4 91.8C113.9 91.8 115.4 93.4 115.8 96.1Z" fill="#555759"/>
<path d="M131.6 85.7999V76.3999H125V85.7999H122.5V91.1999H125V105.5C125 109.7 127.8 112.5 131.9 112.5H135.3V106.1H132.6C131.9 106.1 131.6 106 131.6 105V91.1999H135.3V85.7999H131.6Z" fill="#555759"/>
<path d="M29.6 115.1C29 114.7 28.3 114.5 27.6 114.5H24.4V122.7H26.3V119.8H27.8C29.3 119.9 30.5 118.7 30.6 117.2C30.6 117.2 30.6 117.2 30.6 117.1C30.6 116.4 30.3 115.6 29.6 115.1ZM27.8 118H26.4V116.3H27.8C28 116.3 28.3 116.3 28.5 116.5C28.7 116.7 28.9 116.9 28.9 117.2C28.9 117.7 28.5 118.1 28 118.1C27.8 118 27.8 118 27.8 118ZM37 114.4C35.9 114.4 34.8 115 34.2 116C33.9 116.5 33.8 116.9 33.8 118.6C33.8 120.3 33.9 120.7 34.2 121.2C35.2 122.7 37.2 123.2 38.7 122.2C39.1 121.9 39.5 121.6 39.7 121.2C40 120.7 40.1 120.3 40.1 118.6C40.1 116.9 40 116.5 39.7 116C39.2 115 38.1 114.4 37 114.4ZM38 120.5C37.5 121 36.7 121.1 36.2 120.6L36.1 120.5C35.9 120.2 35.8 120.1 35.8 118.6C35.8 117.1 35.9 117 36.1 116.7C36.6 116.2 37.4 116.1 37.9 116.6L38 116.7C38.2 117 38.3 117.1 38.3 118.6C38.3 120.1 38.2 120.2 38 120.5ZM44 122.7H45.9V114.5H44V122.7ZM54.6 119.1L51.6 114.5H50V122.7H51.9V118.1L54.9 122.7H56.6V114.5H54.7L54.6 119.1ZM59.8 114.5V116.2H62V122.7H63.9V116.2H66V114.5H59.8Z" fill="#555759"/>
</svg>
