<svg width="81" height="47" fill="none" xmlns="http://www.w3.org/2000/svg"><path d="M17.306 8.946l-12.744.408C2.82 9.41 1.978 11.512 3.2 12.755l2.003 2.038a1 1 0 0 0 .72.299l51.165-.41a2 2 0 0 0 1.983-2v-1.824a2 2 0 0 0-1.952-2l-14.23-.337a2 2 0 0 1-1.469-.696L35.294.696A2 2 0 0 0 33.777 0H23.615a2 2 0 0 0-1.849 1.236l-2.675 6.475a2 2 0 0 1-1.785 1.235z" fill="#fff"/><path d="M55.506 12.288l-45.937-.26c-1.815-.01-2.704 2.207-1.386 3.454l.722.682a2 2 0 0 0 1.362.547l45.227.283a1 1 0 0 0 1.006-1v-2.706a1 1 0 0 0-.994-1z" fill="#fff"/><circle cx="20.31" cy="17.81" r="3.143" fill="#fff"/><circle cx="47.548" cy="17.81" r="3.143" fill="#fff"/><path d="M2.5 30a4 4 0 0 1 4-4h70a4 4 0 0 1 0 8h-70a4 4 0 0 1-4-4zm8.571 11.368h-.573v-2.305c0-.275.006-.493.02-.654a2.435 2.435 0 0 1-.14.13c-.054.046-.236.196-.547.448l-.288-.364 1.05-.825h.478v3.57z" fill="#fff"/><path d="M10.5 31v4.378" stroke="#fff"/><path d="M31.806 41.368h-2.42v-.435l.921-.925c.272-.279.452-.475.54-.591.09-.117.154-.227.195-.33a.885.885 0 0 0 .061-.33.5.5 0 0 0-.146-.38.554.554 0 0 0-.4-.14c-.137 0-.27.026-.399.076a1.87 1.87 0 0 0-.442.274l-.31-.379c.199-.167.392-.286.579-.356a1.69 1.69 0 0 1 .598-.105c.332 0 .598.087.798.261.2.173.3.406.3.698 0 .162-.029.315-.087.46a1.835 1.835 0 0 1-.266.449c-.12.153-.318.36-.596.622l-.62.6v.025h1.694v.506z" fill="#fff"/><path d="M30.5 31v4.378" stroke="#fff"/><path d="M51.672 38.619a.831.831 0 0 1-.198.566.999.999 0 0 1-.556.303v.02c.286.035.5.125.644.268.143.141.215.33.215.566 0 .344-.121.609-.364.796-.242.186-.587.279-1.035.279-.396 0-.73-.065-1.001-.193v-.51a2.29 2.29 0 0 0 .97.234c.276 0 .483-.051.62-.154.136-.103.204-.261.204-.476 0-.19-.075-.33-.227-.42-.151-.09-.389-.134-.713-.134h-.31v-.467h.315c.57 0 .855-.197.855-.59a.436.436 0 0 0-.15-.355c-.098-.082-.245-.124-.439-.124-.135 0-.265.02-.39.059a1.811 1.811 0 0 0-.445.222l-.28-.4a1.864 1.864 0 0 1 1.14-.362c.36 0 .64.077.842.232a.761.761 0 0 1 .303.64z" fill="#fff"/><path d="M50.5 31v4.378" stroke="#fff"/><path d="M72.933 40.589h-.48v.779h-.56v-.78h-1.63v-.441l1.63-2.358h.56v2.324h.48v.476zm-1.04-.476v-.896c0-.32.008-.58.025-.784h-.02a2.77 2.77 0 0 1-.215.39l-.886 1.29h1.096z" fill="#fff"/><path d="M71.5 31v4.378" stroke="#fff"/><path d="M24.809 3.54l-1.553 3A1 1 0 0 0 24.144 8h11.775a1 1 0 0 0 .781-1.625l-2.4-3A1 1 0 0 0 33.52 3h-7.823a1 1 0 0 0-.888.54z" fill="#F9BA00"/></svg>
