<svg width="194" height="270" fill="none" xmlns="http://www.w3.org/2000/svg"><path d="M50.33 74.655c-1.642-3.249-12.688-44.914 4.768-57.426M51.999 74.676C49.549 71.983 27.23 35.518 40.713 18.8M48.562 75.335c-3.115-1.884-31.663-32.576-23.497-52.44" stroke="#A19B9B" stroke-width="2" stroke-linecap="round"/><path d="M28.93 79.516c2.532.157 5.955.147 10.115-.387 8.668-1.111 20.488-4.49 34.06-13.302.21 7.736.982 15.8 2.817 22.8 2.109 8.042 5.753 15.181 12.09 18.422l.612.313.675-.13c6.932-1.329 13.829.816 19.904 5.372 6.086 4.564 11.246 11.486 14.551 19.426 6.63 15.927 5.598 35.282-9.338 47.507-16.423 13.443-33.654 16.418-47.761 14.518-7.07-.952-13.353-3.129-18.348-5.829-5.026-2.717-8.623-5.893-10.466-8.754-6.291-9.766-9.588-19.534-9.446-28.792.142-9.214 3.69-18.105 11.428-26.189 3.809-3.978 4.546-9.27 3.795-14.564-.75-5.284-3.01-10.869-5.604-15.888-2.606-5.041-5.614-9.635-7.961-12.959-.394-.557-.77-1.08-1.122-1.564z" stroke="#A19B9B" stroke-width="4" stroke-linecap="round"/><path d="M76.11 103.895c1.148 3.808 1.05 7.205-.22 7.588-1.27.382-1.106-2.574-2.253-6.382-1.148-3.808-3.172-7.026-1.903-7.409 1.27-.382 3.23 2.395 4.377 6.203zM43.098 166.898c1.699 4.435 4.624 7.102 2.998 7.725-1.626.623-4.321-2.467-6.02-6.902-1.699-4.435-1.758-8.535-.132-9.158 1.626-.623 1.455 3.901 3.154 8.335z" fill="#A19B9B"/><circle cx="56.465" cy="139.465" r="2.5" transform="rotate(-33.537 56.465 139.465)" fill="#A19B9B"/><circle cx="89.599" cy="127.599" r="2.5" transform="rotate(2.32 89.6 127.599)" fill="#A19B9B"/><path d="M69.634 170.223c11.906 6.252 27.633-2.025 26.743-15.473" stroke="#A19B9B" stroke-width="2" stroke-linecap="round" stroke-linejoin="round"/><path d="M25.408 76.721c8.615-6.404 28.068-17.704 48.748-13.932" stroke="#A19B9B" stroke-width="2" stroke-linecap="round"/><path d="M63.779 137.632c.653.985.87 1.747.866 2.35-.004.592-.222 1.155-.678 1.752-.468.611-1.16 1.222-2.047 1.879-.733.542-1.554 1.084-2.442 1.67l-.574.38c-.195.128-.386.256-.574.381-.885.589-1.704 1.135-2.489 1.598-.951.562-1.783.961-2.528 1.153-.728.188-1.331.169-1.878-.058-.557-.231-1.173-.727-1.826-1.712a8.501 8.501 0 0 1 14.17-9.393zM95.46 127.297c.436 1.098.492 1.887.364 2.477-.126.578-.454 1.085-1.023 1.575-.584.502-1.386.958-2.39 1.418-.829.38-1.744.741-2.733 1.132l-.64.253-.64.255c-.988.395-1.902.76-2.765 1.053-1.046.354-1.942.573-2.711.608-.75.034-1.337-.109-1.826-.443-.497-.341-.999-.953-1.435-2.052a8.5 8.5 0 0 1 4.761-11.037 8.499 8.499 0 0 1 11.038 4.761z" stroke="#A19B9B" stroke-width="2"/><circle cx="60.204" cy="16.59" r="4.5" transform="rotate(-10.858 60.204 16.59)" fill="#A19B9B" stroke="#A19B9B" stroke-width="2"/><circle cx="45.473" cy="19.416" r="4.5" transform="rotate(-10.858 45.473 19.416)" fill="#A19B9B" stroke="#A19B9B" stroke-width="2"/><circle cx="29.194" cy="19.483" r="4.5" transform="rotate(-10.858 29.194 19.483)" fill="#A19B9B" stroke="#A19B9B" stroke-width="2"/><path d="M4.747 217.885s41.081 10.077 92.059-2.32c50.977-12.397 88.673-41.633 88.673-41.633" stroke="#A19B9B" stroke-width="5" stroke-linecap="round" stroke-linejoin="round"/><path d="M24.363 241.416s34.14 8.163 78.114-2.531c43.973-10.693 72.496-34.096 72.496-34.096" stroke="#A19B9B" stroke-width="4" stroke-linecap="round" stroke-linejoin="round"/><path d="M63.307 257.673s11.361 7.529 43.66-.326c32.299-7.854 38.789-16.122 38.789-16.122" stroke="#A19B9B" stroke-width="3" stroke-linecap="round" stroke-linejoin="round"/></svg>