<svg width="40" height="44" fill="none" xmlns="http://www.w3.org/2000/svg"><g clip-path="url(#clip0)"><path d="M7.397 35.514l2.717-6.143c.542-1.22 2.014-1.759 3.28-1.198l3.095 1.368.346-.415c1.107-1.326 2.622-3.143 3.867-5.959 1.248-2.823 1.573-5.17 1.81-6.883.026-.18.049-.355.074-.523l-2.076-.916-1.022-.453c-1.268-.56-1.858-2.012-1.318-3.234l2.716-6.144c.54-1.22 2.012-1.76 3.28-1.198l1.735.773-.021.047a7.742 7.742 0 0 1 1.73 1.417 8.07 8.07 0 0 1 1.17 1.664c2.46 4.623 1.958 9.912-1.73 18.252-5.1 11.527-12.042 13.49-12.343 13.571a8.03 8.03 0 0 1-2.025.25 7.715 7.715 0 0 1-2.204-.325l-.018.035-1.744-.75c-1.266-.562-1.858-2.013-1.319-3.236z" fill="#F9BA00"/></g><defs><clipPath id="clip0"><path fill="#fff" d="M0 0h40v44H0z"/></clipPath></defs></svg>
