<svg width="16" height="16" fill="none" xmlns="http://www.w3.org/2000/svg"><g clip-path="url(#clip0)" fill="#F9BA00"><path d="M14.188 4.735l.885-.468a8.067 8.067 0 0 0-.56-.907l-.816.581c.182.253.345.519.491.794zm-1.082-1.517l.73-.684a8.175 8.175 0 0 0-.778-.729l-.635.775c.241.198.47.411.683.638z"/><path d="M15.51 5.242h-.002l-.94.345a7.014 7.014 0 1 1-2.903-3.55l.526-.85a7.999 7.999 0 1 0 3.318 4.055z"/><path d="M9.99 8.007A2.003 2.003 0 1 0 9.99 4H6.483v3.004H4.481v1.002h2.003v1.001H4.481v1.002h2.003v2.002h1.002V10.01h2.002V9.008H7.486V8.007h2.503zM7.485 5.002h2.503a1.001 1.001 0 0 1 0 2.003H7.486V5.002z"/></g><defs><clipPath id="clip0"><path fill="#fff" d="M0 0h16v16H0z"/></clipPath></defs></svg>