<svg width="295" height="50" fill="none" xmlns="http://www.w3.org/2000/svg"><path stroke="#F9BA00" d="M192.29 8.289h94.421v33.079H192.29zM184.5 30.658V19h7.276v11.658zM185.704 30.914v-12.17M294.5 19v11.658h-7.276V19zM293.296 18.743v12.172M202.513.5h11.658v7.276h-11.658zM202.257 1.704h12.171M218.092.5h11.658v7.276h-11.658zM217.835 1.704h12.172M233.184.5h11.658v7.276h-11.658zM232.928 1.704h12.171M248.276.5h11.658v7.276h-11.658zM248.02 1.704h12.171M263.855.5h11.658v7.276h-11.658zM263.599 1.704h12.171M245.329 49.158h-11.658v-7.276h11.658zM245.585 47.954h-12.171M229.75 49.158h-11.658v-7.276h11.658zM230.007 47.954h-12.171M277.46 49.158h-11.658v-7.276h11.658zM277.717 47.954h-12.171M261.882 49.158h-11.658v-7.276h11.658zM262.138 47.954h-12.171M214.171 49.158h-11.658v-7.276h11.658zM214.428 47.954h-12.171"/><path d="M207.612 8.763v32.619M270 8.763v32.619" stroke="#F9BA00" stroke-linecap="round" stroke-dasharray="4 4"/><path stroke="#F9BA00" d="M102.298 8.297h60.405v33.114h-60.405zM111.557.5h11.671v7.285h-11.671zM111.301 1.706h12.183M94.5 30.69V19.019h7.285v11.67zM95.706 30.946V18.763M170.5 19.019v11.67h-7.285V19.02zM169.294 18.763v12.183M127.152.5h11.671v7.285h-11.671zM126.895 1.706h12.184M142.26.5h11.671v7.285H142.26zM142.003 1.706h12.184M153.93 49.208h-11.671v-7.285h11.671zM154.187 48.003h-12.184M138.335 49.208h-11.671v-7.285h11.671zM138.592 48.003h-12.184M122.74 49.208h-11.671v-7.285h11.671zM122.997 48.003h-12.184"/><path fill="#F9BA00" d="M2.949 12.539h73.718v2.949H2.949z"/><path d="M17.398 43.5l15.038-27.718h3.833C33.222 25.022 27.01 43.5 26.54 43.5h-9.142zM62.513 43.5L47.475 15.782H43.64c3.047 9.24 9.26 27.718 9.73 27.718h9.142z" stroke="#F9BA00"/><path fill="#F9BA00" d="M0 9h80.205v.59H0zM24.769 9.59h2.949v2.949h-2.949zM51.898 9.59h2.949v2.949h-2.949z"/></svg>