<svg width="296" height="65" fill="none" xmlns="http://www.w3.org/2000/svg"><path stroke="#F9BA00" d="M16.246 7.073l15.181-4.882 3.093 9.617-15.18 4.883zM16.889 8.797l15.577-5.01M80.85 7.073L65.67 2.191l-3.094 9.618 15.182 4.882zM80.208 8.797l-15.577-5.01M16.246 57.619L31.427 62.5l3.093-9.618-15.18-4.882zM16.889 55.895l15.577 5.01M80.85 57.618l-15.18 4.883-3.094-9.618L77.758 48zM80.208 55.895l-15.577 5.01M40.584 64.189l15.947.003.002-10.103-15.947-.003zM40.584.503L56.531.5l.002 10.103-15.947.003zM40.084 2.337H57.03M96.497 24.446l.003 15.947-10.103.002-.003-15.947zM94.663 23.946v16.947M.503 24.446L.5 40.393l10.103.002.003-15.947zM2.337 23.946v16.947M40.084 62.203H57.03"/><path d="M86 32.42c0 5.33-3.774 10.54-10.713 14.53C68.403 50.908 58.76 53.42 48 53.42c-10.76 0-20.403-2.512-27.287-6.47C13.774 42.96 10 37.75 10 32.42s3.774-10.54 10.713-14.53C27.597 13.933 37.24 11.42 48 11.42c10.76 0 20.403 2.512 27.287 6.47C82.226 21.88 86 27.09 86 32.42z" stroke="#F9BA00" stroke-width="4"/><path d="M211.802 37.675l-4.069-4.521c-14.016 7.987-33.292 25.577-23.962 28.935 11.303 4.07 33.456-6.48 41.142-12.207l-4.521-4.069c-6.179 3.768-19.622 10.58-23.962 7.686s8.439-11.755 15.372-15.824zM226.722 24.111c10.7-3.617 29.658-6.782 19.893 9.495l-19.893-9.495z" stroke="#F9BA00"/><path fill="#F9BA00" d="M158 11h137.443v2H158z"/><path fill="#F9BA00" d="M206.829 11.904h8.138v2.713h-8.138zM239.381 11.904h8.138v2.713h-8.138z"/><path fill="#F9BA00" d="M209.541 12.809h2.713v8.138h-2.713zM242.094 12.809h2.713v8.138h-2.713z"/><path d="M268.316 62.993c-32.63 0-55.61-23.51-62.392-35.717-.602-1.206-1.899-5.606 4.974-6.33 8.59-.904 46.116 17.633 56.514 28.936 8.319 9.042 4.069 13.111.904 13.111z" stroke="#F9BA00"/><path d="M256.024 54.403c-19.423 0-33.101-13.64-37.138-20.723-.359-.7-1.131-3.253 2.96-3.673 5.113-.524 27.45 10.23 33.64 16.789 4.951 5.246 2.422 7.607.538 7.607z" stroke="#F9BA00"/></svg>