<svg width="296" height="65" fill="none" xmlns="http://www.w3.org/2000/svg"><path stroke="#F9BA00" d="M16.246 7.073l15.181-4.882 3.093 9.617-15.18 4.883zM16.889 8.797l15.576-5.01M80.85 7.073L65.67 2.191l-3.094 9.618 15.182 4.882zM80.208 8.797l-15.577-5.01M16.246 57.619L31.427 62.5l3.093-9.618-15.18-4.882zM16.889 55.895l15.576 5.01M80.85 57.618l-15.18 4.883-3.094-9.618L77.758 48zM80.208 55.895l-15.577 5.01M40.584 64.189l15.947.003.002-10.103-15.947-.003zM40.584.503L56.531.5l.002 10.103-15.947.003zM40.084 2.337H57.03M96.497 24.446l.003 15.947-10.103.002-.003-15.947zM94.663 23.946v16.947M.503 24.446L.5 40.393l10.103.002.003-15.947zM2.337 23.946v16.947M40.084 62.203H57.03"/><path d="M86 32.42c0 5.33-3.774 10.54-10.713 14.53C68.403 50.908 58.76 53.42 48 53.42c-10.76 0-20.403-2.512-27.287-6.47C13.774 42.96 10 37.75 10 32.42s3.774-10.54 10.713-14.53C27.597 13.933 37.24 11.42 48 11.42c10.76 0 20.403 2.512 27.287 6.47C82.226 21.88 86 27.09 86 32.42z" stroke="#F9BA00" stroke-width="4"/><path d="M225.954 56.147h-21.35V48.88h3.18c7.268.727 19.987-2.725 25.438-4.542 29.435-9.449 34.674-26.044 33.615-33.16l6.359 1.362c1.363 2.423 1.544 10.175-8.631 21.804C254.39 45.972 234.585 51 225.954 52.06v4.088zM249.121 37.523c1.363 0 23.621-11.81 24.075-24.984M180.529 10.722c-1.968 10.145 5.27 31.434 46.334 35.431" stroke="#F9BA00"/><path d="M245.033 56.147H225.5V52.06c4.724 0 14.99-3.331 19.533-4.997v9.085zM186.889 25.712c-4.609-4.224-6.057-11.507-5.905-14.99-2.181 0-3.937 1.212-4.543 1.817-1.453 15.626 20.29 30.435 31.343 35.886 9.812.727 20.744-2.423 24.984-4.088-30.435-3.634-40.428-13.628-45.879-18.625z" stroke="#F9BA00"/><path fill="#F9BA00" d="M156 3h140v1.817H156z"/><path d="M272.288 11.63s-17.716-.908-11.357-5.45c5.088-3.634 11.357 5.45 11.357 5.45zm-95.847.909c-.303-.606.636-1.817 6.814-1.817s8.631-1.817 8.631-3.634c0-2.271-15.445-3.997-15.445 5.451z" stroke="#F9BA00"/></svg>