<svg width="293" height="50" fill="none" xmlns="http://www.w3.org/2000/svg"><path fill="#F9BA00" d="M5 11h74v2H5z"/><path d="M40.412 42L19 13h3.294L47 42h-6.588z" stroke="#F9BA00"/><path d="M30.904 40.553l30.212-23.561.2-3.36H72l-5.032 4.12L61.315 43H23.507L12 12h6.575c.658 0 5.206 20.395 7.398 29.368H59.67l1.1-18.54-21.648 17.725h-8.219zM0 7h23v2H0V7zM61 7h22v2H61V7z" fill="#F9BA00"/><path d="M23 8h38" stroke="#F9BA00"/><path fill="#F9BA00" d="M10 9h2v2h-2zM72 9h2v2h-2z"/><path stroke="#F9BA00" d="M190.289 8.289h94.421v33.079h-94.421zM182.5 30.658V19h7.276v11.658zM183.704 30.914v-12.17M292.5 19v11.658h-7.276V19zM291.296 18.743v12.172M200.513.5h11.658v7.276h-11.658zM200.257 1.704h12.171M216.092.5h11.658v7.276h-11.658zM215.836 1.704h12.171M231.184.5h11.658v7.276h-11.658zM230.928 1.704h12.171M246.276.5h11.658v7.276h-11.658zM246.02 1.704h12.171M261.855.5h11.658v7.276h-11.658zM261.599 1.704h12.171M243.329 49.158h-11.658v-7.276h11.658zM243.586 47.954h-12.171M227.75 49.158h-11.658v-7.276h11.658zM228.007 47.954h-12.171M275.461 49.158h-11.658v-7.276h11.658zM275.717 47.954h-12.171M259.882 49.158h-11.658v-7.276h11.658zM260.138 47.954h-12.171M212.171 49.158h-11.658v-7.276h11.658zM212.428 47.954h-12.171"/><path d="M205.612 8.763v32.619M268 8.763v32.619" stroke="#F9BA00" stroke-linecap="round" stroke-dasharray="4 4"/><path stroke="#F9BA00" d="M102.297 8.297h60.405v33.114h-60.405zM111.557.5h11.671v7.285h-11.671zM111.301 1.706h12.183M94.5 30.69V19.019h7.285v11.67zM95.706 30.946V18.763M170.5 19.019v11.67h-7.285V19.02zM169.294 18.763v12.183M127.152.5h11.671v7.285h-11.671zM126.896 1.706h12.183M142.26.5h11.671v7.285H142.26zM142.003 1.706h12.184M153.93 49.208h-11.671v-7.285h11.671zM154.187 48.003h-12.184M138.335 49.208h-11.671v-7.285h11.671zM138.592 48.003h-12.184M122.74 49.208h-11.671v-7.285h11.671zM122.997 48.003h-12.184"/></svg>