<svg width="295" height="50" fill="none" xmlns="http://www.w3.org/2000/svg"><path stroke="#F9BA00" d="M192.29 8.289h94.421v33.079H192.29zM184.5 30.658V19h7.276v11.658zM185.704 30.914v-12.17M294.5 19v11.658h-7.276V19zM293.296 18.743v12.172M202.513.5h11.658v7.276h-11.658zM202.257 1.704h12.171M218.092.5h11.658v7.276h-11.658zM217.835 1.704h12.172M233.184.5h11.658v7.276h-11.658zM232.928 1.704h12.171M248.276.5h11.658v7.276h-11.658zM248.02 1.704h12.171M263.855.5h11.658v7.276h-11.658zM263.599 1.704h12.171M245.329 49.158h-11.658v-7.276h11.658zM245.585 47.954h-12.171M229.75 49.158h-11.658v-7.276h11.658zM230.007 47.954h-12.171M277.46 49.158h-11.658v-7.276h11.658zM277.717 47.954h-12.171M261.882 49.158h-11.658v-7.276h11.658zM262.138 47.954h-12.171M214.171 49.158h-11.658v-7.276h11.658zM214.428 47.954h-12.171"/><path d="M207.612 8.763v32.619M270 8.763v32.619" stroke="#F9BA00" stroke-linecap="round" stroke-dasharray="4 4"/><path stroke="#F9BA00" d="M105.298 8.297h60.405v33.114h-60.405zM114.557.5h11.671v7.285h-11.671zM114.301 1.706h12.183M97.5 30.69V19.019h7.285v11.67zM98.706 30.946V18.763M173.5 19.019v11.67h-7.285V19.02zM172.294 18.763v12.183M130.152.5h11.671v7.285h-11.671zM129.895 1.706h12.184M145.26.5h11.671v7.285H145.26zM145.003 1.706h12.184M156.93 49.208h-11.671v-7.285h11.671zM157.187 48.003h-12.184M141.335 49.208h-11.671v-7.285h11.671zM141.592 48.003h-12.184M125.74 49.208h-11.671v-7.285h11.671zM125.997 48.003h-12.184M8.062 46.084l5.16-30.635h7.094l-8.062 30.636H8.062zM79.329 46.084l-5.16-30.635h-7.094l8.061 30.636h4.193zM19.348 15.45L10.32 46.084M68.365 15.772l9.029 30.313M6.304 12.725h75.749v2.225H6.304z"/><path fill="#F9BA00" d="M0 9h87.713v1.29H0zM7.094 10.29h1.935v1.935H7.094zM21.283 10.29h1.935v1.935h-1.935zM63.205 10.29h1.935v1.935h-1.935zM77.394 10.29h1.935v1.935h-1.935z"/></svg>