<svg width="86" height="86" fill="none" xmlns="http://www.w3.org/2000/svg"><path d="M60.841 66.084a9.407 9.407 0 0 1-5.607 4.608 9.458 9.458 0 0 1-2.732.406 9.489 9.489 0 0 1-4.145-.96L43 67.516l-5.357 2.62a9.483 9.483 0 0 1-4.146.961c-.942 0-1.86-.143-2.733-.406a9.404 9.404 0 0 1-5.607-4.61l-.685-1.29v18.061a3.146 3.146 0 0 0 4.553 2.815L43 78.683l13.972 6.985a3.146 3.146 0 0 0 4.553-2.814v-18.06l-.685 1.29z" fill="#5D5D5D"/><path d="M76.023 30.214l-6.288-6.499 1.267-8.951a3.146 3.146 0 0 0-2.572-3.54l-8.906-1.562-4.24-7.99A3.146 3.146 0 0 0 51.123.32L43 4.29 34.877.32a3.146 3.146 0 0 0-4.161 1.352l-4.238 7.99-8.907 1.561A3.146 3.146 0 0 0 15 14.764l1.267 8.952-6.289 6.5a3.146 3.146 0 0 0 0 4.375l6.289 6.498-1.267 8.958a3.147 3.147 0 0 0 2.573 3.54l6.9 1.209 2.006.35 1.141 2.151 3.097 5.837c.016.03.033.057.05.086a3.146 3.146 0 0 0 4.111 1.267L43 60.513l8.122 3.973a3.145 3.145 0 0 0 4.112-1.266l.049-.086L58.38 57.3l1.143-2.154 2.003-.351 6.904-1.21a3.146 3.146 0 0 0 2.572-3.54l-1.268-8.957 6.288-6.498a3.146 3.146 0 0 0 .001-4.376zm-33.022 17.92c-8.675 0-15.732-7.057-15.732-15.733 0-8.673 7.057-15.73 15.732-15.73 8.674 0 15.73 7.056 15.73 15.73 0 8.676-7.056 15.734-15.73 15.734z" fill="#5D5D5D"/><path d="M43 22.963c-5.204 0-9.439 4.234-9.439 9.438 0 5.206 4.235 9.441 9.44 9.441 5.204 0 9.438-4.235 9.438-9.44 0-5.205-4.234-9.439-9.438-9.439z" fill="#1DD9B7"/></svg>