<svg width="94" height="94" fill="none" xmlns="http://www.w3.org/2000/svg"><g clip-path="url(#clip0)"><path d="M50.825 63.585a5.29 5.29 0 0 0-5.289-5.289h-9.371V47.695a5.899 5.899 0 0 1-1.221-1.337L26.65 33.462l10.742 10.359a4.412 4.412 0 0 0 5.127.72l16.529-8.772 1.23 1.018c.33.272.73.404 1.126.404a1.764 1.764 0 0 0 1.126-3.121l-1.24-1.026c.304-1.06.23-2.23-.328-3.28-1.122-2.118-3.736-2.928-5.867-1.855l-2.955-2.447-1.071-.886a1.766 1.766 0 0 0-2.483.233 1.76 1.76 0 0 0 .193 2.437c.017.014.02.033.037.047l2.89 2.393-10.495 5.569-8.439-8.14 3.392 2.012v-.087a6.445 6.445 0 0 0-6.446-6.444h-5.978a6.445 6.445 0 0 0-6.446 6.444v34.53a5.301 5.301 0 0 0 4.252 5.196c1.188.248 17.312.109 18.7.109V88.71a5.29 5.29 0 0 0 10.578 0V63.585zM26.62 20.612c5.692 0 10.308-4.613 10.308-10.305C36.928 4.613 32.312 0 26.62 0a10.304 10.304 0 0 0-10.308 10.307c0 5.692 4.611 10.305 10.308 10.305z" fill="#5D5D5D"/><path d="M86.653 24.71a3.522 3.522 0 0 0-4.952-.605L51.15 47.987a3.526 3.526 0 1 0 4.347 5.554l9.29-7.262v45.254A2.467 2.467 0 0 0 67.253 94h9.464a2.467 2.467 0 0 0 2.467-2.466v-56.51l6.863-5.365a3.526 3.526 0 0 0 .606-4.949z" fill="#F9BA00"/><path d="M37.602 75.246a3.525 3.525 0 0 0-3.527-3.527H13.652V40.13a3.525 3.525 0 0 0-3.527-3.526A3.525 3.525 0 0 0 6.6 40.129v50.344a3.525 3.525 0 1 0 7.053 0V78.772H30.55v11.701a3.525 3.525 0 1 0 7.052 0V75.246z" fill="#5D5D5D"/></g><defs><clipPath id="clip0"><path fill="#fff" d="M0 0h94v94H0z"/></clipPath></defs></svg>