<svg width="81" height="81" fill="none" xmlns="http://www.w3.org/2000/svg"><path d="M61.8 58.28s-2.556 5.396-3.55 7.526c-.568 1.136-.852 1.988-.71 3.266.284 1.704 1.704 3.124 3.408 3.408 2.698.426 5.112-1.562 5.112-4.26 0-.71-.284-1.42-.568-2.13-.852-1.988-3.692-7.81-3.692-7.81zM54.7 45.5h14.2v-5.68H54.7v5.68z" fill="#1DD9B7"/><path d="M26.3 75.32V61.262c0-5.68 2.13-11.076 6.248-14.91 4.26-3.977 10.082-6.39 16.472-6.39h25.56V27.322c0-2.414-1.987-4.402-4.401-4.402H49.02c-8.378 0-16.188 2.698-22.72 7.1V12.839H6.42v62.48H26.3z" fill="#5D5D5D"/><path d="M75.149 12.839H6.419c0-7.668 6.532-13.49 14.2-12.78l54.956 5.396c1.846.142 3.266 1.704 3.266 3.692 0 1.988-1.704 3.692-3.692 3.692zM30.56 81H2.16v-1.42c0-2.272 1.845-4.26 4.26-4.26H26.3c2.272 0 4.26 1.846 4.26 4.26V81z" fill="#5D5D5D"/><path fill="#1DD9B7" d="M10 12h3v64h-3z"/></svg>