<svg width="92" height="92" fill="none" xmlns="http://www.w3.org/2000/svg"><g clip-path="url(#clip0)"><path d="M.546 57.795a1.47 1.47 0 0 0 .593 1.208L45.266 91.71a1.466 1.466 0 0 0 1.749 0l44.127-32.708a1.469 1.469 0 0 0-.02-2.376l-5.084-3.631a1.469 1.469 0 0 0-2.048.342L.546 57.795zm0 0c.007-.475.246-.917.638-1.185l-.638 1.185zM45.564 91.31h0L1.436 58.601h0a.97.97 0 0 1-.392-.797v-.001a.964.964 0 0 1 .42-.78h.001l5.193-3.558s0 0 0 0a.972.972 0 0 1 1.349.252l.145.21.255.006 70.08 1.566 1.616.036-.686-.491c.404-.099.93-.203 1.5-.315l.07-.014a39.016 39.016 0 0 0 1.976-.422c.301-.077.583-.16.81-.25a2.24 2.24 0 0 0 .325-.154.972.972 0 0 0 .297-.26h0a.97.97 0 0 1 1.352-.227h0l5.083 3.631h0a.969.969 0 0 1 .014 1.568s0 0 0 0L46.717 91.31l-.002.002a.966.966 0 0 1-1.151 0z" fill="#5D5D5D" stroke="#fff" stroke-width=".999"/><path d="M45.564 83.905h0L1.436 51.194a.973.973 0 0 1-.392-.799h0a.965.965 0 0 1 .42-.78h.001l4.81-3.295-.28-.413.281.412h0c.13-.088 1.535-1.138 3.762-2.801 4.056-3.03 10.834-8.092 17.586-13.085C32.867 26.557 38.1 22.718 42.05 19.89a204.266 204.266 0 0 1 4.797-3.357 28.233 28.233 0 0 1 1.359-.87c.086-.05.157-.089.214-.119l28.806 18.874.072.047.084.02c.73.178 1.535.916 2.352 2.096.8 1.154 1.54 2.627 2.176 4.091a52.328 52.328 0 0 1 1.516 3.97 53.26 53.26 0 0 1 .528 1.647l.027.093.007.023.002.006h0v.001l.178.617.553-.324h.002l.008-.005.01-.006.028-.015a4.234 4.234 0 0 1 .637-.28c.192-.063.378-.106.537-.113.162-.007.246.024.285.052h0l4.605 3.29h0a.967.967 0 0 1 .014 1.567l-44.128 32.71a.971.971 0 0 1-1.155 0z" fill="#5D5D5D" stroke="#fff" stroke-width=".999"/><path d="M73.214 34.47c-.295 0-.594-.088-.852-.274L57.615 23.664a1.468 1.468 0 1 1 1.707-2.39L74.07 31.806a1.468 1.468 0 0 1-.855 2.664zM31.118 66.053c-.304 0-.61-.094-.874-.289L15.761 55.03a1.472 1.472 0 0 1-.306-2.056 1.472 1.472 0 0 1 2.056-.305l14.484 10.735a1.47 1.47 0 0 1-.877 2.65z" fill="#fff"/><path d="M15.761 55.03a1.466 1.466 0 0 0 1.768-.015l20.816-15.928a1.468 1.468 0 1 0-1.785-2.333l-18.23-3.139a1.47 1.47 0 0 0-1.66-2.425L1.184 41.798a1.472 1.472 0 0 0-.045 2.393l14.622 10.838zM54.44 69.567c.288.39.732.594 1.182.594.303 0 .61-.093.873-.288l34.649-25.682a1.47 1.47 0 0 0-.021-2.376L75.113 30.38a1.464 1.464 0 0 0-1.746.029L51.145 47.412a1.467 1.467 0 0 0-.274 2.059l3.874 18.04a1.47 1.47 0 0 0-.305 2.056z" fill="#F9BA00"/><path d="M37.451 39.39c-.13 0-.262-.017-.391-.053l-19.95-5.518a1.471 1.471 0 0 1-.439-2.629l29.567-20.25a1.468 1.468 0 0 1 1.684.018l12.443 8.888a1.468 1.468 0 0 1 .04 2.362l-22.06 16.879c-.26.197-.575.302-.894.302zM46.14 77.188c-.306 0-.615-.096-.874-.289L30.244 65.764a1.469 1.469 0 0 1-.018-2.348l20.92-16.005a1.467 1.467 0 0 1 2.338.909l3.582 20.114a1.47 1.47 0 0 1-.57 1.439l-9.48 7.026a1.47 1.47 0 0 1-.876.289z" fill="#F9BA00"/></g><defs><clipPath id="clip0"><path fill="#fff" d="M0 0h92v92H0z"/></clipPath></defs></svg>