<svg width="108" height="108" fill="none" xmlns="http://www.w3.org/2000/svg"><g clip-path="url(#clip0)"><path d="M106.788 40.312l-35.078.091v.124H36.29v-.032l-12.79.032-.031-.032H0v44.362c-.002 6.48 5.254 11.734 11.735 11.734h95.055a1.21 1.21 0 0 0 1.21-1.21V41.522c0-.669-.543-1.21-1.212-1.21z" fill="#5D5D5D"/><path d="M40.323 53.655l-2.782-3.709a.478.478 0 0 0-.764 0l-2.782 3.71a.478.478 0 0 0-.095.286V87.139a2.281 2.281 0 0 0 2.281 2.281h1.956a2.281 2.281 0 0 0 2.282-2.281V53.942a.478.478 0 0 0-.096-.287z" fill="#fff"/><path d="M40.419 81.217v5.922a2.281 2.281 0 0 1-2.282 2.281H36.18A2.281 2.281 0 0 1 33.9 87.14v-5.922h6.52z" fill="#fff"/><path d="M23.469 40.527v44.33c0-6.632-5.502-11.98-12.19-11.726-6.083.23-11.04 5.187-11.27 11.27-.007.152-.009.304-.009.456V39.18c0-6.447 5.13-11.824 11.578-11.908 6.552-.085 11.89 5.202 11.89 11.734v1.521zM89.42 84.995L54 85.086v-27.27c0-1.003.813-1.816 1.817-1.816h4.485c8.04 0 15.32 3.26 20.59 8.53 5.243 5.242 8.496 12.474 8.529 20.465zm-27.814-7.482h18.82c-2.93-7.734-10.2-13.351-18.82-13.868v13.868z" fill="#F9BA00"/></g><defs><clipPath id="clip0"><path fill="#fff" d="M0 0h108v108H0z"/></clipPath></defs></svg>